<svg width="142" height="137" viewBox="0 0 142 137" fill="none" xmlns="http://www.w3.org/2000/svg">
<g filter="url(#filter0_d_4631_3604)">
<path d="M69.8228 40.8563C69.8228 40.8563 69.5384 40.5925 68.9874 40.1261C68.4411 39.656 67.6062 39.0021 66.5244 38.218C65.4375 37.4409 64.0894 36.544 62.4801 35.6583C60.8747 34.7709 58.9977 33.9042 56.894 33.2424C56.6316 33.161 56.3662 33.0789 56.0983 32.9961C55.8282 32.9217 55.553 32.8576 55.278 32.7867C55.0009 32.7236 54.7288 32.6327 54.4425 32.5898C54.1597 32.5377 53.8743 32.4848 53.5865 32.4313C53.4427 32.4066 53.3 32.3729 53.1542 32.3552C53.0083 32.3378 52.8619 32.32 52.7151 32.3026C52.4228 32.2654 52.1283 32.228 51.8316 32.1903C51.5342 32.1631 51.2331 32.1563 50.932 32.1371C50.7815 32.1289 50.6307 32.1204 50.4791 32.1122L50.2518 32.0994L50.0233 32.1049C47.5835 32.0912 45.0522 32.513 42.5748 33.3959C42.2597 33.4852 41.9599 33.6349 41.6528 33.76C41.347 33.89 41.0404 34.02 40.7307 34.1448C40.1213 34.4238 39.524 34.749 38.9143 35.0474C38.3218 35.3886 37.7368 35.7557 37.1427 36.1073C36.564 36.4911 35.9926 36.8986 35.4129 37.2927L35.1956 37.4417L34.9876 37.6066L34.5717 37.938C34.2941 38.1586 34.016 38.3795 33.7374 38.6008L33.3189 38.932L32.9191 39.2921L32.1127 40.0073L31.3041 40.7241L30.9188 41.0907L30.565 41.4443C30.1008 41.9197 29.669 42.428 29.2604 42.9536C27.6003 45.0456 26.4309 47.4833 25.7867 50.0202L25.6615 50.4951L25.5691 50.9773L25.4752 51.4587C25.441 51.6184 25.4126 51.7791 25.3961 51.942C25.3507 52.2662 25.3056 52.5894 25.2604 52.9118C25.2223 53.2357 25.2106 53.5627 25.1832 53.8871L25.1467 54.374L25.1428 54.8626C25.1404 55.1885 25.1378 55.5134 25.1355 55.8374C25.1527 56.1628 25.1702 56.4872 25.1874 56.8101C25.2036 57.1338 25.2093 57.457 25.256 57.7784C25.5146 60.3536 26.123 62.8561 26.906 65.1937C27.6673 67.5415 28.6562 69.7096 29.6176 71.6981C30.1175 72.6856 30.5825 73.6439 31.0928 74.5255C31.3386 74.9722 31.5781 75.4075 31.8108 75.8307C31.9243 76.0443 32.0454 76.2502 32.1698 76.4496C32.2906 76.652 32.4096 76.8509 32.5267 77.0473C32.7608 77.4406 32.9875 77.8217 33.2061 78.1892C33.424 78.5583 33.6348 78.9144 33.8529 79.2469C34.28 79.9212 34.6722 80.5406 35.0262 81.0998C35.7385 82.2198 36.3308 83.0848 36.7208 83.6857C37.114 84.2844 37.317 84.6115 37.317 84.6115C37.317 84.6115 37.0225 84.3605 36.4832 83.8756C36.2136 83.632 35.8815 83.3318 35.4909 82.9787C35.1003 82.6243 34.6427 82.2233 34.1731 81.7374C33.692 81.2608 33.1686 80.7237 32.5948 80.1398C32.4526 79.9928 32.3024 79.8463 32.1583 79.6901C32.0172 79.5316 31.8732 79.3701 31.7268 79.2057C31.4333 78.8758 31.1291 78.5341 30.8149 78.181C30.1702 77.4842 29.5555 76.6899 28.8894 75.8596C28.2071 75.0401 27.5815 74.1143 26.8958 73.163C26.5428 72.6935 26.2391 72.1792 25.9109 71.6644C25.7481 71.4061 25.5837 71.1451 25.418 70.8818C25.2521 70.618 25.0807 70.3542 24.9309 70.0745C24.6173 69.5227 24.3115 68.954 23.9948 68.378C23.6872 67.7973 23.4135 67.1866 23.115 66.5762C21.9873 64.1079 21.0262 61.3575 20.5161 58.3628C20.4362 57.9923 20.3974 57.6112 20.3494 57.2301C20.3016 56.8488 20.2552 56.4657 20.2179 56.0797C20.1991 55.6909 20.1803 55.3006 20.1615 54.909L20.1367 54.3198L20.1469 53.7259C20.1576 53.3291 20.1542 52.9305 20.1787 52.5307C20.2126 52.1305 20.2466 51.7294 20.2807 51.3271C20.2954 51.1258 20.3243 50.9251 20.3588 50.7245L20.4553 50.1215L20.5537 49.5169L20.6888 48.916C21.0434 47.3123 21.5566 45.7124 22.285 44.1919C23.0057 42.6686 23.9019 41.2137 24.951 39.8618C25.4835 39.1913 26.0486 38.5424 26.6581 37.9298L27.1199 37.4776L27.5697 37.0578L28.485 36.2598C29.6787 35.1737 30.9991 34.2087 32.3211 33.2704C33.011 32.8299 33.6828 32.3744 34.38 31.9572C35.1035 31.5706 35.8139 31.1761 36.5372 30.8095C37.2875 30.4808 38.0194 30.1337 38.7711 29.8347C39.1554 29.7007 39.5381 29.5672 39.9196 29.4342C40.3034 29.3077 40.6747 29.1602 41.071 29.0708C44.1651 28.1802 47.3638 27.9341 50.2923 28.2476C53.2314 28.5543 55.8621 29.4467 58.0921 30.4983C60.3252 31.5644 62.1733 32.8149 63.6758 34.0397C65.181 35.2648 66.359 36.4502 67.2646 37.4689C68.1752 38.484 68.8001 39.3465 69.2204 39.932C69.4307 40.225 69.5765 40.46 69.677 40.6162C69.773 40.7747 69.8228 40.8563 69.8228 40.8563Z" fill="#35225F"/>
<path d="M73.8888 51.7954C74.0607 52.3155 74.2509 52.8266 74.4458 53.3339C74.6363 53.8423 74.8471 54.3429 75.0532 54.8415C75.4772 55.836 75.9257 56.8135 76.4131 57.7658C76.8942 58.7206 77.4171 59.6489 77.9671 60.5505C78.5241 61.4492 79.1104 62.3209 79.7405 63.1504C80.0559 63.5649 80.3857 63.9662 80.716 64.3617C81.0476 64.757 81.3954 65.1359 81.7515 65.503C82.1077 65.8701 82.4766 66.2209 82.8497 66.5621C83.2233 66.9032 83.6103 67.2256 84.0076 67.5303C84.4019 67.839 84.8149 68.1198 85.2271 68.3938C85.6391 68.6686 86.0651 68.9184 86.498 69.1505C86.929 69.386 87.3749 69.5912 87.8234 69.7833C88.2716 69.9765 88.7288 70.1462 89.1893 70.3026L88.9787 70.2343L89.1749 70.2947L89.3406 70.3523L89.501 70.4112L89.7726 70.513L90.2645 70.6962C90.5864 70.8155 90.9034 70.928 91.222 71.0376L92.1756 71.3558C92.4924 71.4621 92.8107 71.5587 93.1279 71.6542C93.446 71.7493 93.764 71.8387 94.0821 71.9223C94.2407 71.9672 94.4001 72.0039 94.559 72.0433C94.7179 72.0815 94.8768 72.1244 95.0354 72.1571C95.3532 72.229 95.6702 72.2976 95.9862 72.355C96.3019 72.4249 96.615 72.4688 96.9286 72.5269L96.4579 72.4858L96.5537 72.4873L96.6251 72.4905L96.6648 72.4927L96.7165 72.496L96.7908 72.501L96.9182 72.5097L97.1584 72.5272L97.6278 72.5631L98.559 72.6395L100.423 72.8107C101.048 72.8743 101.672 72.9487 102.319 73.035C102.644 73.0794 102.971 73.1264 103.329 73.189C103.511 73.2212 103.697 73.2569 103.929 73.3115C104.05 73.3412 104.169 73.3692 104.366 73.4331L104.538 73.4932L104.652 73.5389L104.782 73.596C104.841 73.6237 104.92 73.6644 104.987 73.7016L105.1 73.7682C105.165 73.8087 105.229 73.8521 105.291 73.8975C105.353 73.9432 105.413 73.9908 105.47 74.0405C105.575 74.1311 105.711 74.2696 105.813 74.3991C105.866 74.466 105.916 74.5351 105.961 74.6052L105.995 74.6584L106.038 74.7303C106.079 74.8036 106.118 74.8807 106.153 74.9603C106.296 75.2793 106.371 75.6451 106.37 75.9758L106.37 76.3272L106.283 76.6279L106.135 77.1387L105.987 77.6186C105.884 77.9363 105.778 78.2525 105.665 78.5689C105.435 79.2005 105.183 79.8324 104.884 80.477C104.581 81.1244 104.245 81.7747 103.74 82.4879C103.481 82.8448 103.185 83.2224 102.717 83.6366C102.479 83.842 102.193 84.0609 101.803 84.2653C101.411 84.4671 100.886 84.6553 100.271 84.6982L99.2877 84.5919C99.3227 84.6036 99.3582 84.6134 99.3942 84.6214L99.4484 84.6316L99.4756 84.6356C99.4821 84.6366 99.4753 84.6356 99.4753 84.6356C99.4641 84.6343 99.4531 84.6321 99.4422 84.6294L99.2543 84.6051L98.7476 84.5582L97.6328 84.4779L95.3271 84.3259C93.7779 84.2056 92.2184 84.0788 90.6537 83.9146C89.8718 83.8255 89.0891 83.7317 88.304 83.6246C87.5189 83.5156 86.7315 83.4065 85.9438 83.2658C85.1554 83.1245 84.3645 82.9691 83.5693 82.7886C83.1722 82.6998 82.7725 82.6 82.3722 82.4964L81.7711 82.325L81.1663 82.1358L81.5026 82.1972C81.3915 82.1815 81.2689 82.161 81.2055 82.146C81.1264 82.1296 81.0502 82.1123 80.9866 82.0954C80.8485 82.0619 80.7249 82.0257 80.5999 81.9896C80.3533 81.9167 80.1193 81.8376 79.8884 81.7555C79.4295 81.5895 78.9914 81.4036 78.5622 81.2057C78.1343 81.0046 77.7226 80.783 77.3182 80.5539C76.9153 80.3223 76.5237 80.0772 76.1425 79.8212C75.7626 79.5631 75.3919 79.2959 75.0371 79.0114C74.6814 78.7281 74.3397 78.4319 74.0054 78.1307L73.517 77.6673L73.0474 77.1891C72.7463 76.861 72.4473 76.5328 72.1728 76.1872C71.8887 75.8495 71.6314 75.4934 71.3697 75.144C71.126 74.7812 70.8777 74.4243 70.6585 74.051C70.4276 73.6854 70.2233 73.3063 70.0185 72.9302C69.827 72.5469 69.6355 72.1658 69.4656 71.7768C69.295 71.388 69.1288 70.9999 68.9905 70.6014C68.8394 70.2088 68.7092 69.81 68.5897 69.41C68.4609 69.0132 68.3682 68.6054 68.2647 68.2049C68.1684 67.8016 68.0966 67.3926 68.0176 66.9893L68.6297 68.0719C68.8512 68.423 69.0409 68.7841 69.2725 69.125C69.4972 69.4686 69.7109 69.8143 69.9514 70.1444C70.1792 70.4808 70.4278 70.803 70.6689 71.1264C70.9121 71.4486 71.1727 71.7576 71.43 72.065C71.6964 72.3662 71.9523 72.6719 72.2331 72.9564C72.501 73.2506 72.7964 73.5207 73.0766 73.7987C73.3706 74.0649 73.6566 74.3357 73.9629 74.584C74.2606 74.8408 74.5763 75.0766 74.8894 75.3102L75.3629 75.6544L75.8469 75.9808C76.1754 76.1897 76.5057 76.3915 76.8439 76.5797C77.1833 76.7654 77.523 76.9461 77.8679 77.114C78.2136 77.2802 78.5635 77.4347 78.917 77.5757C79.2713 77.7139 79.6272 77.8445 79.9857 77.9545C80.3419 78.0688 80.6996 78.1716 81.0515 78.252C81.2269 78.2907 81.4011 78.3271 81.5668 78.354C81.6482 78.3668 81.7307 78.3803 81.8009 78.3872C81.8408 78.393 81.8695 78.3945 81.895 78.3955C81.936 78.4005 81.9188 78.3922 81.913 78.3905L81.9076 78.3887L82.2496 78.4519L82.7623 78.5465L83.2862 78.6303C83.639 78.6855 83.9935 78.7379 84.3544 78.7818C85.0747 78.8721 85.8076 78.9432 86.5465 79.0021C87.2867 79.057 88.0306 79.1169 88.7794 79.1586C89.5277 79.203 90.2812 79.2355 91.0357 79.2634C92.5445 79.3316 94.0633 79.377 95.5933 79.4102L97.9062 79.4823L99.0996 79.5292L99.4132 79.5457L99.7454 79.5676C99.8693 79.5779 99.9857 79.5873 100.132 79.6036L100.385 79.6375L100.421 79.6427L100.483 79.6545L100.608 79.6802C100.691 79.6982 100.774 79.7184 100.855 79.7403L99.8716 79.634C99.5758 79.6507 99.3592 79.7383 99.2481 79.7945C99.1372 79.8506 99.1038 79.8806 99.1038 79.8806L99.1674 79.8065C99.2053 79.7605 99.2528 79.6974 99.3036 79.6223C99.5121 79.3201 99.7472 78.8706 99.9624 78.4017C100.179 77.9278 100.381 77.4155 100.568 76.8917C100.663 76.6299 100.755 76.3648 100.841 76.0986L100.968 75.7003L101.079 75.3282L100.991 75.9803C100.988 76.302 101.061 76.6593 101.201 76.9693C101.235 77.0471 101.273 77.1215 101.314 77.1929L101.386 77.3124C101.429 77.3793 101.476 77.4447 101.526 77.5081C101.621 77.6306 101.751 77.7616 101.85 77.846C101.899 77.8901 101.952 77.9323 102.006 77.9725C102.06 78.0124 102.116 78.0503 102.174 78.0853L102.262 78.1382C102.312 78.1664 102.375 78.1978 102.417 78.2173L102.495 78.252L102.556 78.2767L102.62 78.2991C102.674 78.3154 102.644 78.3059 102.617 78.2996C102.553 78.2837 102.439 78.2605 102.321 78.2375C102.078 78.1908 101.802 78.1457 101.523 78.1027C100.96 78.0164 100.373 77.9415 99.784 77.8647L98.0043 77.6421L97.1115 77.5395L96.6687 77.4908L96.4524 77.4679L96.3517 77.4576L96.3118 77.4534C96.3108 77.4532 96.2977 77.4519 96.3063 77.4524L96.3175 77.4529L96.3749 77.4554L96.4563 77.4564L95.9857 77.4152C95.5993 77.3326 95.2066 77.2607 94.8277 77.1644C94.4453 77.0731 94.0701 76.9695 93.6964 76.8632C93.5083 76.8125 93.3254 76.7531 93.1405 76.6975C92.9563 76.6403 92.7708 76.5859 92.5894 76.5243C92.2239 76.406 91.862 76.282 91.5038 76.1532C91.1461 76.0234 90.7892 75.8924 90.438 75.7529C90.0847 75.6177 89.7382 75.4692 89.3938 75.321C89.0499 75.172 88.7071 75.0192 88.3734 74.8653L87.8816 74.6374L87.6611 74.5344L87.5745 74.4934L87.5638 74.4884L87.5805 74.4944L87.6147 74.5052C87.6379 74.5117 87.6614 74.5171 87.6851 74.5211L87.4746 74.4527C86.892 74.2019 86.3146 73.9404 85.762 73.6375C85.2104 73.3332 84.6698 73.0133 84.1555 72.6619C83.1213 71.9669 82.1617 71.1866 81.3046 70.3294C80.4433 69.4766 79.6591 68.5707 78.9752 67.6117C78.2875 66.6557 77.6712 65.6682 77.1429 64.6475C76.8778 64.1379 76.6289 63.6236 76.3948 63.1055C76.1605 62.5874 75.9542 62.0599 75.7548 61.533C75.5589 61.0045 75.3689 60.4767 75.2077 59.9406C75.0441 59.4056 74.8938 58.8688 74.7561 58.3305C74.4884 57.2514 74.2729 56.1664 74.1236 55.0756C74.0451 54.531 73.9911 53.9838 73.9454 53.4377C73.9071 52.8895 73.8799 52.3419 73.8888 51.7954Z" fill="#35225F"/>
<path d="M96.915 82.1854C97.0689 82.4028 97.2007 82.6346 97.3236 82.8714C97.4402 83.1095 97.5534 83.3536 97.6479 83.6046C97.741 83.8557 97.8305 84.1125 97.8997 84.3757C97.968 84.6388 98.0275 84.9075 98.0724 85.1823C98.1146 85.4571 98.1402 85.7373 98.1522 86.0228C98.166 86.3088 98.1569 86.5998 98.1277 86.8933C98.1094 87.0402 98.0932 87.1887 98.0695 87.3372L97.9795 87.7857C97.9411 87.9351 97.8942 88.0831 97.848 88.2331C97.7989 88.3819 97.7358 88.5283 97.6776 88.6771C97.5492 88.9696 97.4057 89.2648 97.2252 89.5428C97.1381 89.684 97.0444 89.822 96.9385 89.9515C96.8331 90.0811 96.7355 90.2218 96.6178 90.3416L96.2671 90.7102L95.887 91.0473C95.761 91.1651 95.6206 91.2545 95.4834 91.354C95.3448 91.4494 95.2068 91.5549 95.0625 91.6346L94.6284 91.8878C94.4823 91.9704 94.3341 92.0351 94.1851 92.109C93.8866 92.2627 93.5853 92.3682 93.2795 92.4823C92.974 92.5953 92.6721 92.6737 92.3629 92.7638C92.0587 92.8374 91.7547 92.901 91.4474 92.9667L91.4056 92.9754L91.0618 92.9762L90.0155 92.9779L89.0042 92.9517C88.3324 92.925 87.6629 92.8868 86.9955 92.8294C86.3273 92.776 85.6617 92.7036 84.9969 92.6193C84.3319 92.5364 83.6689 92.4354 83.0075 92.3223C82.3461 92.2088 81.6865 92.0788 81.029 91.9368C80.3718 91.7888 79.7164 91.6355 79.0652 91.4551C78.7383 91.3718 78.4142 91.2767 78.0902 91.1779C77.7661 91.079 77.4418 90.9874 77.1206 90.8759L76.1576 90.547L75.2027 90.1856C74.5697 89.9348 73.9412 89.6666 73.3228 89.3718C73.0131 89.2236 72.7066 89.0731 72.4008 88.9184C72.0963 88.7572 71.7963 88.5882 71.4954 88.4235C71.1933 88.2626 70.9032 88.0667 70.6091 87.8895C70.4625 87.7991 70.3161 87.7093 70.1729 87.6135L69.7471 87.314C69.4656 87.1106 69.1791 86.9249 68.9078 86.7033C68.6359 86.4855 68.3679 86.2674 68.1042 86.0435C67.8474 85.8062 67.5876 85.5764 67.3405 85.3348C67.0926 85.0932 66.8635 84.8249 66.6287 84.5734C66.3879 84.3293 66.1883 84.0358 65.9775 83.7638L65.6688 83.3518C65.5746 83.2056 65.487 83.0553 65.3972 82.9089C65.2219 82.6124 65.0346 82.3319 64.9036 82.0107L64.6933 81.5478L64.5908 81.3187L64.5125 81.0759C64.4144 80.7512 64.3025 80.4415 64.2396 80.1156C64.1824 79.7869 64.1386 79.4615 64.1055 79.1428C64.3392 79.3871 64.5621 79.6242 64.7721 79.858C64.8699 79.9783 65.0067 80.0779 65.1183 80.1872L65.4606 80.5061L65.6302 80.6616L65.8136 80.8069L66.175 81.0923C66.4059 81.2848 66.6616 81.4559 66.9115 81.6244C67.0355 81.7097 67.161 81.7914 67.2802 81.8774L67.6684 82.1095C67.9265 82.2625 68.1741 82.417 68.4439 82.553C68.711 82.6902 68.9618 82.838 69.2339 82.963C69.5097 83.0843 69.7721 83.2178 70.0383 83.3436C70.5943 83.5712 71.1294 83.813 71.6937 84.0184L72.1101 84.1776L72.5362 84.3241C72.8209 84.4209 73.0959 84.5267 73.3842 84.6171C73.6709 84.7094 73.9582 84.798 74.241 84.8941L75.1077 85.1531C75.3926 85.2457 75.6888 85.3198 75.9799 85.4019C76.2709 85.4848 76.5594 85.5706 76.8563 85.642L77.7374 85.8748L78.625 86.0959C79.2207 86.2347 79.8119 86.3857 80.4133 86.5152C81.0103 86.6547 81.6137 86.78 82.2146 86.9132L83.121 87.1034L84.0303 87.2871L85.8561 87.6447L87.6898 87.9895L89.5281 88.32L90.4455 88.4794L91.3313 88.6287L90.9454 88.6381L91.5705 88.6239C91.767 88.6012 91.9796 88.6012 92.1722 88.5735C92.3632 88.5445 92.5662 88.5273 92.7467 88.4869C92.8385 88.4677 92.9382 88.456 93.0267 88.4323L93.2933 88.3609C93.3875 88.3414 93.4639 88.3045 93.5506 88.2763C93.6343 88.2458 93.7246 88.2189 93.8023 88.182L94.0502 88.0789L94.284 87.9549C94.3672 87.9167 94.4314 87.8605 94.5094 87.8144C94.5885 87.7687 94.6568 87.713 94.7275 87.6569C94.8788 87.5526 95.0124 87.4251 95.1484 87.2915C95.211 87.2209 95.2814 87.1533 95.343 87.0779C95.4025 87.0008 95.4628 86.9229 95.5282 86.8448L95.7038 86.5928L95.8656 86.3223C96.067 85.9494 96.2559 85.5367 96.3924 85.0935C96.4675 84.8726 96.5309 84.6443 96.587 84.4112C96.6415 84.1778 96.6966 83.9388 96.7365 83.696C96.777 83.4529 96.8179 83.2051 96.8453 82.954C96.8748 82.7017 96.9011 82.4464 96.915 82.1854Z" fill="#35225F"/>
<path d="M91.0438 91.6069C91.2674 91.9723 91.4171 92.3718 91.545 92.7846C91.6621 93.1984 91.7433 93.6303 91.7706 94.0773C91.7892 94.3011 91.7887 94.5282 91.7738 94.7581C91.762 94.9884 91.7346 95.2218 91.6926 95.4576C91.6478 95.6919 91.5831 95.9272 91.5066 96.1636L91.3759 96.5169C91.3245 96.633 91.2715 96.75 91.2136 96.8653C91.0902 97.0917 90.9582 97.3203 90.7995 97.5351C90.7244 97.6459 90.6422 97.752 90.5538 97.8538C90.4653 97.9554 90.3829 98.0667 90.2829 98.158L89.9881 98.444L89.6714 98.7058C89.5647 98.7951 89.4512 98.868 89.3382 98.9459C89.2244 99.0205 89.1109 99.1048 88.993 99.1685C88.7582 99.3045 88.5169 99.4355 88.2721 99.5413C88.0266 99.6613 87.7793 99.7462 87.5291 99.8363C87.2781 99.9279 87.0315 99.9885 86.7776 100.06C86.5282 100.119 86.2798 100.169 86.0278 100.221L86.4252 100.153C86.3344 100.177 86.242 100.198 86.1486 100.214L85.9978 100.24L85.8337 100.267L85.5683 100.31C85.4037 100.334 85.2367 100.36 85.0791 100.379C84.7585 100.417 84.4459 100.448 84.1344 100.472C83.5108 100.517 82.8927 100.54 82.277 100.533C81.6604 100.53 81.0473 100.501 80.435 100.454C79.8234 100.405 79.215 100.33 78.6089 100.241L77.7032 100.088L76.8047 99.9017C76.2082 99.7651 75.6157 99.6127 75.0305 99.4372C74.4463 99.2593 73.8655 99.0696 73.2965 98.85C72.7249 98.6387 72.1655 98.3956 71.6129 98.1435C71.0621 97.8858 70.5197 97.614 69.9931 97.3145C69.7268 97.171 69.4661 97.018 69.2107 96.8561C68.9552 96.6949 68.6938 96.5459 68.4473 96.3719C67.9489 96.0333 67.4574 95.6897 66.9922 95.3121C66.5152 94.9525 66.0761 94.5447 65.6347 94.1507C65.2099 93.7344 64.7833 93.3266 64.398 92.8797C64.0063 92.4397 63.6335 91.9873 63.2907 91.5129C62.9366 91.0504 62.6269 90.5526 62.3274 90.057C62.1753 89.8116 62.0425 89.5509 61.9128 89.2903C61.7813 89.0318 61.6595 88.7673 61.5449 88.5002C62.1046 88.7431 62.612 89.0183 63.1333 89.2694C63.6552 89.5194 64.1506 89.7837 64.6628 90.0195C64.92 90.1361 65.1585 90.2706 65.4119 90.3861C65.6662 90.4999 65.9177 90.6145 66.1638 90.733C66.4096 90.8523 66.6582 90.9648 66.9092 91.0722L67.6476 91.4063C68.1488 91.6117 68.6307 91.836 69.128 92.0292C69.3769 92.1258 69.6153 92.2361 69.864 92.3284L70.6016 92.6142C71.0963 92.7953 71.5834 92.9845 72.0786 93.1519L72.817 93.408C73.0659 93.4861 73.3132 93.5665 73.5585 93.6506C74.0563 93.8013 74.5468 93.9662 75.0475 94.1027C75.2958 94.1759 75.5427 94.2525 75.7944 94.3151C76.0452 94.3805 76.2915 94.4581 76.5435 94.5185L77.2957 94.7112C77.548 94.7698 77.8006 94.8272 78.0513 94.8916C78.5569 95.0046 79.0626 95.1169 79.5706 95.2205L80.3343 95.371L81.1003 95.5102C81.6122 95.5933 82.1246 95.6837 82.6378 95.7538C83.151 95.8302 83.6653 95.896 84.1738 95.9509C84.4282 95.9824 84.6818 96.0074 84.927 96.0273L85.2863 96.059L85.4441 96.0715L85.4914 96.0787C85.5673 96.0742 85.3682 96.0992 85.2743 96.1361L85.6717 96.069L86.1408 96.0914C86.2879 96.085 86.4492 96.0977 86.5934 96.0872C86.739 96.0787 86.8911 96.075 87.0289 96.0563C87.1761 96.0468 87.3089 96.0193 87.4482 95.9969C87.5215 95.9896 87.5815 95.9679 87.6499 95.9537C87.7161 95.9377 87.7879 95.9257 87.8489 95.902L88.0467 95.8434L88.2361 95.7685C88.3034 95.7458 88.3603 95.7124 88.4253 95.6847C88.4908 95.6572 88.5536 95.6253 88.6129 95.5881C88.7394 95.5217 88.8553 95.4376 88.9761 95.3505C89.0316 95.3029 89.0919 95.2569 89.1537 95.21L89.3265 95.0531C89.4379 94.942 89.5493 94.8232 89.6513 94.6922C89.759 94.5637 89.8629 94.4259 89.9573 94.2782C90.0539 94.1314 90.1434 93.9757 90.2321 93.8145C90.3221 93.6536 90.4001 93.4844 90.4765 93.3102C90.5569 93.1365 90.6271 92.9563 90.6939 92.7721C90.7622 92.5877 90.8254 92.3983 90.8833 92.2049C90.9404 92.0095 90.9978 91.8118 91.0438 91.6069Z" fill="#35225F"/>
<path d="M73.9564 96.4976C73.9564 96.4976 74.0135 96.5312 74.1054 96.6054C74.1941 96.6805 74.3347 96.79 74.4816 96.9473C74.7772 97.2612 75.1594 97.7476 75.4201 98.46C75.5443 98.8167 75.6565 99.2282 75.6672 99.7048C75.6818 100.178 75.6124 100.718 75.3843 101.272C75.1615 101.826 74.7477 102.368 74.2395 102.777C73.9866 102.995 73.7114 103.15 73.4283 103.308C73.1507 103.432 72.854 103.572 72.5746 103.642L72.1465 103.757C72.0079 103.786 71.8696 103.804 71.7314 103.825C71.4511 103.876 71.1874 103.883 70.9251 103.891C70.6585 103.906 70.4119 103.884 70.1656 103.864C70.043 103.854 69.9201 103.842 69.8014 103.827C69.6851 103.81 69.5697 103.786 69.456 103.765C68.9957 103.688 68.5817 103.555 68.1924 103.422C67.8073 103.283 67.4626 103.109 67.1459 102.955C66.8378 102.78 66.5625 102.608 66.3251 102.444C66.0876 102.281 65.893 102.112 65.7336 101.972C65.5737 101.835 65.4562 101.706 65.3741 101.627C65.2927 101.545 65.252 101.494 65.252 101.494C65.252 101.494 65.3151 101.47 65.4291 101.437C65.5421 101.407 65.7112 101.35 65.9157 101.304C66.1221 101.251 66.366 101.21 66.6418 101.151C66.9171 101.094 67.2205 101.044 67.5435 101C67.8644 100.944 68.2073 100.899 68.5553 100.856C68.9015 100.802 69.2616 100.772 69.6091 100.717C69.6971 100.706 69.7852 100.693 69.8734 100.686C69.958 100.672 70.0428 100.658 70.1286 100.643C70.2977 100.616 70.4725 100.6 70.6269 100.563C70.7871 100.534 70.9497 100.509 71.089 100.47C71.161 100.453 71.2351 100.437 71.3069 100.423C71.3705 100.402 71.4339 100.382 71.4984 100.364L71.5962 100.341C71.6259 100.331 71.651 100.318 71.6786 100.308C71.7324 100.286 71.7911 100.272 71.8467 100.254C71.9336 100.205 72.0437 100.178 72.1157 100.132C72.2782 100.05 72.4269 99.9766 72.5741 99.8426C72.7207 99.7108 72.8697 99.5252 73.0033 99.3008C73.1387 99.0784 73.2527 98.8162 73.35 98.5566C73.4531 98.2961 73.5301 98.0321 73.6044 97.7885C73.6783 97.5442 73.7346 97.3196 73.7886 97.1277C73.8956 96.7264 73.9564 96.4976 73.9564 96.4976Z" fill="#35225F"/>
<path d="M103.108 75.7696L104.194 74.7476L105.26 73.716L106.299 72.6614L107.309 71.587C108.637 70.1419 109.888 68.6445 111.019 67.0826C111.585 66.3022 112.126 65.5091 112.62 64.6946C113.122 63.8838 113.583 63.0558 114.007 62.2158C114.437 61.3777 114.803 60.5165 115.135 59.6506C115.47 58.7854 115.754 57.9072 115.976 57.0198C116.421 55.2459 116.66 53.4441 116.639 51.6551C116.614 49.867 116.362 48.0939 115.86 46.388C115.615 45.5343 115.302 44.6992 114.944 43.8859C114.586 43.0726 114.177 42.2801 113.715 41.5247C113.485 41.1468 113.242 40.778 112.989 40.4231C112.74 40.0757 112.46 39.7136 112.22 39.4469C111.931 39.1387 111.547 38.694 111.257 38.4077L110.793 37.9318L110.301 37.4549C109.635 36.8303 108.947 36.2351 108.227 35.6893C107.505 35.1465 106.757 34.6464 105.984 34.198C104.446 33.2883 102.797 32.5973 101.083 32.1494C99.3683 31.7049 97.5923 31.4836 95.796 31.497C93.9999 31.5098 92.1889 31.7463 90.4051 32.1651C88.6191 32.5759 86.8578 33.1678 85.1605 33.9067C84.3118 34.2751 83.4792 34.6819 82.673 35.1193C82.2697 35.3369 81.8718 35.5608 81.4888 35.7921C81.2967 35.9072 81.1102 36.0245 80.9307 36.1405L80.6734 36.3115L80.4814 36.4475L79.4344 37.3259C79.0474 37.6466 78.6924 37.9613 78.2673 38.2889L77.0348 39.2627C76.6241 39.5911 76.2111 39.8843 75.7991 40.1968C75.389 40.5072 74.9739 40.8112 74.5483 41.1037C74.1241 41.3979 73.7087 41.7003 73.2751 41.9848C72.8438 42.2721 72.4191 42.5636 71.976 42.8428C71.7545 42.9836 71.5414 43.1253 71.3133 43.265C71.0832 43.4068 70.8734 43.5396 70.612 43.6945L71.0952 43.3227L70.8393 43.5615L70.6024 43.7754L70.1299 44.1879C69.8139 44.4582 69.494 44.7217 69.1687 44.9797C68.5195 45.4971 67.8459 45.9917 67.1401 46.4601C66.4336 46.9285 65.6965 47.3737 64.9117 47.7835C64.5172 47.9869 64.1115 48.1818 63.6901 48.3645C63.2659 48.5449 62.826 48.7128 62.3655 48.8623L62.6376 48.754L62.4753 48.8229L62.3965 48.8538L62.3571 48.8678L62.2123 48.918L62.013 48.9833L61.6845 49.0924C61.4771 49.1638 61.278 49.2389 61.08 49.319C60.6855 49.4805 60.3022 49.6656 59.9268 49.8688C59.74 49.9718 59.5555 50.0796 59.3736 50.1922C59.1923 50.306 59.0146 50.4253 58.8385 50.5481C58.665 50.6741 58.4918 50.8014 58.3245 50.9366C58.157 51.0719 57.99 51.2086 57.8312 51.3549C57.1857 51.9299 56.6041 52.5872 56.0841 53.3009C55.8258 53.6598 55.5813 54.0309 55.3517 54.4159C55.2312 54.6043 55.1297 54.8065 55.0173 55.0011C54.9095 55.1993 54.8106 55.4034 54.706 55.6043L54.3441 56.2983L53.8604 56.5568L52.9185 57.0604C52.6419 57.2114 52.3693 57.3664 52.1024 57.5261C51.5683 57.845 51.0541 58.1812 50.5774 58.5341C50.1023 58.8867 49.6621 59.2568 49.2966 59.6276C48.9321 59.9965 48.6534 60.378 48.5227 60.669C48.4572 60.814 48.4207 60.9313 48.4113 61.0204C48.4014 61.1112 48.4027 61.1848 48.4317 61.2859C48.4606 61.3855 48.5256 61.513 48.6386 61.6565C48.7505 61.8 48.9068 61.9542 49.0886 62.1107C49.2804 62.2642 49.4891 62.4201 49.7279 62.5659C49.9619 62.7139 50.2181 62.8536 50.4829 62.9889C50.7509 63.1221 51.0282 63.2502 51.3144 63.3722C51.6009 63.4937 51.896 63.6078 52.1942 63.7201L51.8631 63.6484C51.8931 63.6549 51.9787 63.6669 52.0612 63.6732C52.1426 63.6819 52.2334 63.6861 52.3218 63.6921C52.5024 63.7011 52.6886 63.7048 52.877 63.7046C53.254 63.7034 53.6402 63.6846 54.0263 63.6514C54.4133 63.6215 54.8007 63.5651 55.1884 63.5059C55.5748 63.4383 55.9617 63.3622 56.3455 63.2676C57.1142 63.082 57.87 62.8341 58.6141 62.5464L59.1686 62.3198L59.716 62.0735C60.0752 61.8971 60.4369 61.7214 60.7859 61.5225C60.9636 61.4279 61.1384 61.3283 61.3091 61.2218C61.4802 61.116 61.6571 61.0176 61.8246 60.9056C62.1615 60.6837 62.5025 60.4651 62.8281 60.2241C63.1636 59.9952 63.4738 59.7342 63.7981 59.4879C64.1042 59.2216 64.428 58.971 64.7223 58.689L65.1729 58.274L65.6101 57.8441C65.9071 57.5608 66.1805 57.2561 66.461 56.9559C66.7438 56.6572 66.9992 56.336 67.2714 56.0258L68.0452 55.0605L68.1016 54.9891L68.7624 54.3757C68.9858 54.1723 69.2117 53.9712 69.4398 53.7726C69.8979 53.377 70.3696 52.9945 70.8573 52.6294C71.3467 52.2667 71.8495 51.9149 72.4052 51.6324C72.6836 51.4964 72.9795 51.3649 73.3145 51.3494C73.4786 51.3444 73.6678 51.3941 73.7698 51.5263C73.8734 51.6523 73.9016 51.8058 73.9125 51.9496C73.8765 51.8093 73.8183 51.6673 73.7121 51.5785C73.6083 51.4856 73.4643 51.4762 73.3304 51.5004C73.0575 51.5605 72.805 51.7182 72.5675 51.8824C72.0935 52.2218 71.6661 52.6288 71.2539 53.0459C70.8421 53.4646 70.4505 53.9036 70.0657 54.347C69.8729 54.5686 69.6824 54.792 69.4948 55.0178L68.9359 55.7031L68.9923 55.6317C68.7739 55.9971 68.5639 56.3689 68.3359 56.731C68.0976 57.0867 67.8748 57.454 67.6212 57.8024C67.37 58.1523 67.1245 58.5076 66.8513 58.8453L66.4484 59.3573L66.0226 59.8532C65.7437 60.1891 65.4301 60.4978 65.1332 60.8217C64.8159 61.1274 64.5117 61.4479 64.1762 61.7391C63.8508 62.0408 63.5093 62.3276 63.161 62.6081C62.9885 62.7503 62.8049 62.8798 62.6269 63.0166C62.4492 63.1538 62.2661 63.2846 62.0787 63.4109C61.7114 63.6724 61.3265 63.912 60.9404 64.1521L60.3487 64.4944C60.1491 64.6055 59.9453 64.7093 59.7428 64.8171C58.9275 65.2371 58.0725 65.5937 57.1914 65.8952C56.751 66.0464 56.302 66.1777 55.8483 66.2987C55.3922 66.4118 54.933 66.5198 54.4639 66.5992C53.9955 66.6808 53.5223 66.7502 53.037 66.7878C52.7943 66.8071 52.5488 66.8215 52.2981 66.8285C52.1705 66.8305 52.0455 66.8338 51.9117 66.8315C51.7783 66.8303 51.6487 66.8268 51.4642 66.8118L51.3463 66.8023L51.1329 66.7404C50.778 66.6374 50.4224 66.5303 50.0663 66.4105C49.7099 66.2905 49.3524 66.1582 48.9942 66.013C48.6357 65.864 48.2764 65.7035 47.9161 65.5151C47.5561 65.3312 47.1947 65.1126 46.8362 64.8673C46.4775 64.613 46.1229 64.3187 45.7876 63.9586C45.4542 63.5995 45.1395 63.1653 44.9097 62.652C44.6785 62.1416 44.5465 61.5549 44.5415 60.9854C44.5324 60.413 44.6485 59.8759 44.8134 59.3998C45.1536 58.445 45.6715 57.7193 46.2019 57.0869C46.7376 56.4563 47.3124 55.9232 47.9007 55.4343C48.4893 54.9462 49.0931 54.5043 49.7078 54.0902C50.0149 53.8831 50.3253 53.684 50.6376 53.4903L51.4775 52.9835L50.6322 53.936C50.7472 53.6762 50.8568 53.4147 50.9781 53.1562C51.1055 52.8996 51.221 52.6388 51.3606 52.386C51.6234 51.8742 51.9244 51.3763 52.2438 50.8865C52.889 49.9102 53.6394 48.9774 54.5048 48.1326C54.7185 47.9192 54.9439 47.7151 55.172 47.514C55.4003 47.3126 55.6374 47.1199 55.8777 46.93C56.1209 46.7428 56.3682 46.5609 56.6221 46.3857C56.8768 46.2115 57.1366 46.0438 57.4014 45.8826C57.6676 45.7232 57.9379 45.5694 58.2152 45.4269C58.4918 45.2829 58.7736 45.1479 59.0587 45.0204C59.3442 44.8939 59.634 44.7744 59.9213 44.6655L60.3382 44.5126L60.5125 44.4497L60.5537 44.4337L60.5608 44.431L60.5276 44.4432C60.5036 44.4527 60.4796 44.4632 60.4567 44.4744L60.7291 44.3658C61.0056 44.2653 61.2887 44.1475 61.5747 44.016C61.8611 43.8805 62.1495 43.731 62.4383 43.571C63.0154 43.2461 63.591 42.8755 64.1566 42.4745C64.7204 42.0704 65.2793 41.6429 65.8236 41.1942C66.0954 40.9701 66.3634 40.7406 66.6256 40.5077L67.0123 40.1571L67.1983 39.9824L67.359 39.8269L67.5503 39.642L67.8425 39.4551L68.412 39.0907C68.6077 38.966 68.8073 38.8277 69.0048 38.6972C69.4019 38.4367 69.7941 38.1564 70.188 37.8834C70.5841 37.6136 70.9679 37.3219 71.3577 37.0411C71.7485 36.7609 72.1313 36.4699 72.5143 36.1789C72.8931 35.8877 73.2915 35.6015 73.655 35.3062L74.7579 34.4248C75.1213 34.1448 75.5074 33.7999 75.8832 33.4845L76.4504 33.0019L76.734 32.7608L76.8757 32.6402L76.9576 32.5711L77.051 32.4948L77.1152 32.4448C77.2835 32.3156 77.3993 32.2355 77.5292 32.1439L77.8935 31.8983C78.1322 31.7418 78.3675 31.5919 78.6034 31.4486C79.0748 31.1611 79.5463 30.8894 80.0243 30.6316C80.9818 30.1192 81.9566 29.6508 82.954 29.2251C84.9461 28.3726 87.0247 27.6848 89.1778 27.2027C91.331 26.726 93.5644 26.4782 95.8168 26.5009C98.0679 26.5217 100.341 26.8428 102.51 27.4882C104.682 28.1265 106.748 29.0729 108.614 30.2568C109.545 30.8517 110.43 31.5013 111.268 32.1913C112.104 32.8841 112.887 33.6225 113.631 34.3859L114.18 34.9653L114.724 35.5758L114.992 35.8822L115.226 36.1687L115.709 36.7626C116.099 37.2538 116.392 37.6912 116.69 38.1577C116.981 38.6188 117.251 39.085 117.503 39.5579C118.009 40.503 118.441 41.4757 118.811 42.4687C119.171 43.4649 119.469 44.4801 119.689 45.5103C120.139 47.5679 120.292 49.6821 120.137 51.7631C119.987 53.8447 119.544 55.8905 118.845 57.8291C118.156 59.7721 117.217 61.6071 116.116 63.319C115.02 65.0352 113.748 66.6241 112.38 68.1072C111.001 69.5831 109.526 70.9572 107.972 72.2304C107.584 72.5496 107.187 72.8575 106.792 73.167L105.586 74.0671L104.359 74.9378L103.108 75.7696Z" fill="#35225F"/>
<path d="M35.1758 86.7274C35.5324 86.0945 35.9118 85.4776 36.2919 84.861C36.6734 84.2456 37.0648 83.6374 37.4608 83.0325C38.2542 81.8231 39.0685 80.6288 39.904 79.4496L40.228 78.9922L40.8182 79.2372C41.4099 79.4833 41.9813 79.7458 42.559 80.0106C43.134 80.2786 43.7031 80.5591 44.2721 80.8516C44.8388 81.1513 45.3987 81.4575 45.9688 81.8276C46.1112 81.9235 46.2532 82.021 46.4032 82.1401C46.4757 82.1945 46.5566 82.2666 46.6354 82.3367L46.7627 82.4637C46.8099 82.5154 46.8624 82.5818 46.9086 82.6427C46.9349 82.6791 46.9709 82.7418 46.9975 82.7927L47.0375 82.8745L47.0469 82.895L47.0516 82.9055L47.0727 82.9678L47.0761 82.9816C47.0748 82.9763 47.1006 83.0782 47.109 83.146C47.1142 83.1817 47.1183 83.2229 47.1204 83.2538L47.122 83.2935C47.1272 83.4043 47.1262 83.4889 47.1243 83.5783C47.1212 83.7535 47.1095 83.9167 47.0972 84.0824C47.0356 84.7362 46.919 85.3726 46.7479 86.0062C46.5712 86.6373 46.3354 87.2622 46.0105 87.8651C45.8493 88.1661 45.6546 88.4578 45.4397 88.7388C45.2268 89.0208 44.9726 89.2853 44.6945 89.5264C44.4164 89.769 44.0936 89.9734 43.7573 90.1466C43.4184 90.3202 43.0508 90.4353 42.6821 90.5179L42.0184 90.3672C42.1 90.4408 42.2258 90.5052 42.3523 90.5256C42.3836 90.5311 42.4147 90.5344 42.4447 90.5356L42.4888 90.5359L42.5141 90.5349H42.5172C42.5214 90.5344 42.5256 90.5339 42.5295 90.5326C42.5363 90.5299 42.5016 90.5351 42.4896 90.5361L42.3622 90.5523L42.0768 90.5905C41.8827 90.614 41.6868 90.6374 41.489 90.6504C41.094 90.6788 40.6948 90.6868 40.2948 90.6681C40.0947 90.6594 39.8948 90.6389 39.6955 90.6162C39.4959 90.5898 39.2971 90.5581 39.0996 90.5174C38.9021 90.4752 38.7061 90.4273 38.5133 90.3652C38.3205 90.3058 38.1298 90.2371 37.9451 90.1563C37.7583 90.0804 37.5801 89.9846 37.4047 89.8883C37.2323 89.7847 37.0637 89.6784 36.9061 89.5571C36.8242 89.5012 36.7506 89.4343 36.6763 89.3697C36.6019 89.3048 36.5268 89.2422 36.4602 89.17C36.3921 89.0999 36.3227 89.0315 36.2578 88.9602L36.0751 88.7361C35.9601 88.5831 35.8521 88.4259 35.7579 88.2634C35.6639 88.1004 35.5747 87.9372 35.5032 87.7665C35.4226 87.6003 35.372 87.4229 35.312 87.2517C35.2543 87.0795 35.2183 86.9011 35.1758 86.7274ZM35.1758 86.7274C35.2708 86.8834 35.3524 87.0428 35.4492 87.1933C35.5499 87.3423 35.6428 87.493 35.7566 87.6303C35.8586 87.774 35.9755 87.906 36.0937 88.0348C36.2121 88.1628 36.34 88.2816 36.4709 88.3937L36.6713 88.5559L36.8813 88.7036C37.022 88.7997 37.1702 88.884 37.3207 88.9609C37.4697 89.04 37.6265 89.1047 37.7828 89.1665C37.943 89.2215 38.1016 89.2759 38.2657 89.3165C38.428 89.361 38.5939 89.3941 38.7612 89.4196C38.9279 89.447 39.0972 89.4633 39.266 89.4785C39.4354 89.4915 39.606 89.4962 39.7766 89.4975C39.9478 89.496 40.1187 89.4885 40.2901 89.479C40.6327 89.4578 40.9753 89.4144 41.3165 89.352C41.4872 89.3218 41.6578 89.2883 41.8292 89.2511L42.0912 89.1925L42.2375 89.1601C42.2712 89.1538 42.2819 89.1498 42.3348 89.1418L42.4163 89.1319L42.4369 89.1299L42.4666 89.1289L42.5149 89.1296C42.5477 89.1314 42.5817 89.1349 42.6158 89.1406C42.7539 89.1626 42.8914 89.2282 42.9845 89.3028L42.3208 89.1521C42.5598 89.0697 42.7907 88.9794 43.0012 88.8516C43.2097 88.7213 43.4101 88.5778 43.5856 88.3982C43.761 88.2195 43.9327 88.0326 44.0764 87.8147C44.2225 87.6003 44.3579 87.3737 44.4722 87.1307C44.712 86.6515 44.891 86.1265 45.0264 85.5867C45.1665 85.0489 45.2612 84.4889 45.3084 83.9381C45.3202 83.8021 45.3314 83.6639 45.3348 83.5371C45.3371 83.4752 45.3376 83.4083 45.3361 83.3684L45.3358 83.3514C45.3363 83.3636 45.3384 83.3861 45.3421 83.4028C45.3463 83.433 45.3716 83.4969 45.359 83.455L45.3559 83.441L45.3789 83.5086C45.3823 83.5194 45.3864 83.5298 45.3914 83.5401C45.3987 83.5578 45.4196 83.5855 45.4235 83.5907C45.4206 83.5922 45.4271 83.597 45.4232 83.5912C45.4104 83.5795 45.3982 83.5673 45.3867 83.5546C45.3491 83.5226 45.3165 83.4889 45.2646 83.45C45.1722 83.3746 45.059 83.2938 44.9437 83.2149C44.4779 82.8917 43.9496 82.5793 43.4202 82.2776C42.8919 81.9699 42.3495 81.6742 41.8065 81.3779C41.2659 81.079 40.7123 80.7902 40.1709 80.4995L41.0851 80.2871C40.1477 81.3944 39.1891 82.4865 38.2096 83.5635C37.7194 84.1016 37.2242 84.6364 36.7193 85.1642C36.2124 85.691 35.7054 86.2173 35.1758 86.7274Z" fill="#35225F"/>
<path d="M49.271 84.9727C49.9264 85.1179 50.567 85.3215 51.1973 85.5581C51.8292 85.7927 52.4447 86.0754 53.0425 86.4136C53.6347 86.7595 54.2171 87.155 54.7112 87.718C54.8352 87.8575 54.951 88.012 55.0551 88.1784C55.1039 88.2655 55.1553 88.3501 55.1997 88.4417C55.2401 88.5366 55.2824 88.6304 55.3181 88.7287C55.3471 88.831 55.3779 88.9331 55.4011 89.0384C55.4162 89.1467 55.4327 89.2555 55.4402 89.3656C55.4387 89.4764 55.4387 89.5889 55.429 89.6997C55.4105 89.809 55.3896 89.9188 55.3664 90.0279L55.2156 90.2862C55.2558 90.2495 55.2985 90.1846 55.3137 90.1519L55.3098 90.1647L55.2957 90.2036L55.2576 90.3079L55.1759 90.5315L55.0035 90.9859C54.884 91.2889 54.7525 91.5889 54.6144 91.8876C54.3389 92.4858 54.0177 93.0707 53.6415 93.6397C53.4529 93.9244 53.2481 94.2027 53.0208 94.4722C52.7925 94.7412 52.5441 95.003 52.2673 95.2498C52.1277 95.3731 51.9808 95.4914 51.8232 95.6024C51.6646 95.7123 51.5029 95.8213 51.3239 95.9151C51.1509 96.014 50.9612 96.0976 50.7674 96.1727C50.5722 96.2483 50.3656 96.3037 50.1558 96.3516L50.6124 96.114C50.5239 96.1976 50.394 96.2805 50.2476 96.3262C50.1751 96.3491 50.0999 96.3631 50.029 96.3691C49.9932 96.3721 49.9588 96.3728 49.9257 96.3721L49.8641 96.3688L49.7798 96.3574L49.6961 96.3424L49.6525 96.3322C49.5967 96.3189 49.5426 96.3045 49.5046 96.2925L49.2653 96.2171C49.1171 96.1664 48.9728 96.1155 48.8319 96.0629C48.5496 95.9578 48.2738 95.8485 47.9996 95.735C47.452 95.5074 46.9174 95.2541 46.3857 94.9833C45.8544 94.7095 45.335 94.4061 44.8207 94.0442C44.5632 93.8593 44.3109 93.6559 44.061 93.3936C43.9368 93.2641 43.8115 93.1066 43.6972 92.9172C43.5874 92.7124 43.4742 92.4496 43.4971 92.1004L43.4953 92.1526C43.499 92.0665 43.5185 91.9565 43.5386 91.8923L43.5791 91.7835C43.608 91.7084 43.6294 91.6727 43.6552 91.6156C43.7043 91.518 43.7523 91.4274 43.8011 91.3425C43.8982 91.1694 43.9968 91.0079 44.0962 90.8459C44.2937 90.5228 44.504 90.2128 44.714 89.9036C45.1354 89.286 45.5758 88.6843 46.0381 88.0968C46.4976 87.5079 46.9805 86.9339 47.4945 86.3826C47.7557 86.1101 48.0223 85.8419 48.3054 85.5876C48.4479 85.461 48.5969 85.3405 48.7547 85.2295C48.9097 85.1201 49.079 85.0076 49.271 84.9727ZM49.271 84.9727C49.1025 85.0605 48.9825 85.2008 48.8645 85.3393C48.7464 85.4778 48.6438 85.6295 48.5376 85.777C48.3281 86.0749 48.1356 86.3854 47.9495 86.6988C47.5704 87.3217 47.2153 87.9591 46.8613 88.5954C46.5106 89.2336 46.1654 89.8744 45.831 90.516C45.6635 90.8362 45.503 91.1596 45.3449 91.4778C45.2677 91.6368 45.1904 91.797 45.1234 91.951C45.0882 92.0291 45.0581 92.1037 45.0315 92.1728C45.0229 92.2003 45.0034 92.2467 45.0034 92.2579C45.0023 92.2649 45.001 92.2719 44.9989 92.2784C45.0075 92.2584 45.0214 92.1933 45.0161 92.1519L45.0143 92.204C45.0261 92.1344 45.0167 92.1369 45.0425 92.1741C45.0811 92.219 45.1322 92.2809 45.2103 92.3485C45.36 92.4845 45.5627 92.6248 45.7733 92.7615C46.2033 93.0348 46.6896 93.2776 47.1812 93.5134C47.6751 93.7485 48.1867 93.9624 48.6994 94.1695C48.9559 94.2726 49.2142 94.3721 49.4706 94.4645L49.8497 94.595L50.0222 94.6474L50.0825 94.6639C50.0851 94.6646 50.0929 94.6669 50.0913 94.6666C50.0814 94.6641 50.071 94.6621 50.0608 94.6609C50.0504 94.6596 50.0402 94.6589 50.0298 94.6586L49.975 94.6551C49.9439 94.6544 49.9116 94.6549 49.8784 94.6576C49.8119 94.6629 49.7412 94.6766 49.6731 94.6991C49.5356 94.7437 49.4148 94.8256 49.3352 94.9082L49.7918 94.6706C49.9001 94.6444 50.0094 94.619 50.1185 94.5773C50.2273 94.5356 50.3374 94.4909 50.4454 94.4295C50.555 94.3754 50.6619 94.3033 50.7689 94.2319C50.8754 94.1578 50.98 94.0764 51.0849 93.9913C51.5031 93.6454 51.8801 93.206 52.2318 92.7358C52.583 92.2639 52.8977 91.7518 53.1967 91.2255C53.3451 90.9617 53.4847 90.692 53.6233 90.4197L53.8278 90.0074L53.9298 89.7956L53.9841 89.6828L54.018 89.6136L54.0389 89.5727C54.0634 89.5228 54.1164 89.4409 54.1667 89.387L54.0159 89.6453C54.0279 89.5992 54.0423 89.5537 54.0592 89.5076C54.0665 89.4607 54.0728 89.414 54.0835 89.3663L54.0866 89.2181L54.0665 89.0616L54.0227 88.8982C54.0039 88.8425 53.977 88.7866 53.9559 88.7295C53.9011 88.6172 53.8427 88.5001 53.7654 88.3863C53.6916 88.2718 53.6076 88.1575 53.5132 88.0472C53.4226 87.9346 53.318 87.8281 53.2168 87.7178C53.1087 87.612 53.002 87.5039 52.8854 87.4018C52.7732 87.2965 52.6503 87.1994 52.5314 87.0976C52.0453 86.6986 51.5143 86.3322 50.968 85.9781C50.4193 85.627 49.8521 85.2946 49.271 84.9727Z" fill="#35225F"/>
<path d="M56.8537 91.6504C57.3408 91.732 57.8165 91.8633 58.2864 92.0195C58.7576 92.1745 59.2173 92.3676 59.6671 92.6059C60.113 92.85 60.5547 93.1325 60.9414 93.5545C61.1339 93.7654 61.3114 94.0189 61.4254 94.3348C61.5407 94.6468 61.571 95.0316 61.476 95.3775L61.3262 95.6353C61.3669 95.5963 61.4084 95.5342 61.4267 95.4963L61.4262 95.5015C61.4269 95.502 61.4233 95.5128 61.4188 95.5257L61.3935 95.6001L61.3369 95.7643L61.2159 96.1004C61.1318 96.3253 61.0369 96.5477 60.9383 96.77C60.741 97.215 60.507 97.6509 60.2296 98.0782C60.0908 98.292 59.9385 98.5017 59.7678 98.7056C59.5964 98.9094 59.4091 99.1086 59.198 99.2983C59.0915 99.3931 58.9791 99.4844 58.857 99.5703C58.7341 99.6556 58.6091 99.7397 58.4693 99.8133C58.3344 99.8902 58.1851 99.9563 58.0323 100.015C57.8786 100.075 57.7147 100.119 57.5483 100.156L57.8674 100.028C57.6748 100.149 57.506 100.192 57.3742 100.215C57.2407 100.236 57.1303 100.239 57.0322 100.237C56.8391 100.23 56.6865 100.203 56.543 100.174C56.2602 100.112 56.0212 100.031 55.7895 99.9424C55.3292 99.7649 54.9167 99.5458 54.5129 99.308C54.1103 99.0674 53.7304 98.7959 53.3602 98.471C53.1747 98.307 52.9967 98.1266 52.823 97.8977C52.7369 97.7817 52.651 97.6529 52.5746 97.4887C52.5018 97.3235 52.4251 97.1102 52.4472 96.8214L52.4454 96.8721C52.4459 96.8414 52.4483 96.8104 52.4519 96.7795C52.4559 96.7463 52.4616 96.7171 52.4639 96.7086C52.4699 96.6822 52.4793 96.6462 52.4856 96.628C52.4976 96.5916 52.5109 96.5564 52.5211 96.5337C52.5433 96.4805 52.5626 96.4423 52.5821 96.4037C52.6208 96.3288 52.6581 96.2632 52.6954 96.1993C52.77 96.072 52.8446 95.9535 52.92 95.8357C53.0693 95.6003 53.2287 95.3765 53.3873 95.1531C53.7056 94.7079 54.0393 94.2755 54.3905 93.855C54.7391 93.433 55.108 93.0242 55.4996 92.6329C55.6997 92.4405 55.904 92.2511 56.1198 92.0719C56.2276 91.9823 56.3437 91.8997 56.4624 91.8218C56.5816 91.747 56.7102 91.6674 56.8537 91.6504ZM56.8537 91.6504C56.734 91.72 56.6544 91.8278 56.5727 91.9311C56.4932 92.037 56.4238 92.1502 56.3523 92.261C56.2101 92.4839 56.0801 92.7152 55.9549 92.9491C55.6982 93.4122 55.4571 93.8844 55.2139 94.3538C54.9741 94.825 54.7362 95.2964 54.5045 95.7663L54.1687 96.4688C54.115 96.5843 54.0625 96.7001 54.0166 96.8104C53.9939 96.8653 53.9728 96.9192 53.9569 96.9654C53.9493 96.9876 53.9423 97.0103 53.9415 97.0196C53.9394 97.0278 53.9425 97.0241 53.9446 97.0191C53.9456 97.0166 53.9519 96.9971 53.954 96.9864L53.9621 96.94C53.965 96.9172 53.9663 96.8943 53.966 96.8721L53.9642 96.9227C53.9733 96.8419 53.961 96.8329 53.9793 96.8544C53.9965 96.8768 54.031 96.9212 54.0769 96.9689C54.1687 97.067 54.3018 97.177 54.4414 97.2851C54.7242 97.5034 55.0608 97.7013 55.3994 97.8863C55.7389 98.0707 56.0981 98.2309 56.4423 98.3584C56.6127 98.4213 56.7846 98.4742 56.9244 98.5014C56.9923 98.5151 57.0541 98.5214 57.0773 98.5211C57.0875 98.5211 57.0854 98.5186 57.0585 98.5229C57.033 98.5281 56.9696 98.5384 56.8673 98.6022L57.1866 98.4742C57.2516 98.4582 57.3179 98.444 57.3855 98.4183C57.453 98.3926 57.5224 98.3657 57.5921 98.3262C57.6623 98.2923 57.7327 98.2451 57.8034 98.1982C57.8739 98.1498 57.9446 98.0956 58.0161 98.0387C58.302 97.8079 58.5669 97.5027 58.8197 97.174C59.0717 96.8441 59.3 96.4813 59.5205 96.1082C59.6301 95.921 59.7326 95.7286 59.8359 95.5347L59.9891 95.2402L60.066 95.0878L60.108 95.0039L60.1354 94.9493L60.1529 94.9156C60.1777 94.8652 60.227 94.7905 60.2748 94.7391L60.1253 94.9969C60.1688 94.8986 60.1939 94.8025 60.1751 94.67C60.1571 94.5397 60.0924 94.384 59.9974 94.224C59.802 93.9039 59.4939 93.5834 59.1563 93.2887C58.8181 92.9898 58.4421 92.7125 58.0568 92.4385C57.6691 92.168 57.2665 91.9082 56.8537 91.6504Z" fill="#35225F"/>
<path d="M62.5342 97.6489C62.8473 97.7682 63.1455 97.899 63.4445 98.0283C63.7435 98.1568 64.0363 98.2895 64.3264 98.4223L65.1903 98.8129C65.334 98.8745 65.4736 98.9449 65.6155 99.0018C65.7567 99.0619 65.8989 99.1191 66.0364 99.1824L65.6962 99.0954C65.7997 99.0956 65.9138 99.121 66.0077 99.1647C66.1128 99.2119 66.2248 99.3037 66.2916 99.4013C66.3359 99.4657 66.368 99.5338 66.3891 99.6062C66.4014 99.6499 66.4019 99.6583 66.4056 99.6775L66.4129 99.7312C66.4197 99.8186 66.4152 99.836 66.4126 99.8777C66.4082 99.9221 66.4056 99.9306 66.4014 99.9568C66.385 100.039 66.3704 100.081 66.3578 100.12C66.3323 100.196 66.3103 100.25 66.2882 100.303C66.2446 100.407 66.2021 100.497 66.1585 100.586C66.0716 100.762 65.9772 100.924 65.8819 101.086C65.6928 101.409 65.4814 101.715 65.2563 102.015C65.0319 102.317 64.7812 102.603 64.5062 102.887C64.2246 103.167 63.9194 103.437 63.504 103.685L63.654 103.577C63.5898 103.633 63.5163 103.683 63.4398 103.723C63.3676 103.759 63.3185 103.775 63.2538 103.796C63.1849 103.817 63.1437 103.823 63.1012 103.83C63.0592 103.836 63.0078 103.841 62.9736 103.842C62.8369 103.847 62.7356 103.833 62.655 103.819C62.4914 103.79 62.3816 103.753 62.2746 103.716C62.0654 103.64 61.8945 103.56 61.7293 103.476C61.4011 103.308 61.113 103.117 60.83 102.922C60.5479 102.726 60.2862 102.511 60.0298 102.29C59.7746 102.068 59.5361 101.828 59.3047 101.582L59.4852 100.423C59.461 100.435 59.4378 100.449 59.4169 100.466C59.4031 100.477 59.401 100.48 59.4015 100.48L59.3989 100.483C59.3921 100.493 59.3994 100.489 59.4093 100.482C59.4239 100.475 59.4537 100.448 59.4787 100.426C59.533 100.379 59.5927 100.32 59.652 100.26L60.0201 99.8799C60.2682 99.6187 60.5226 99.3531 60.7864 99.0929C61.0476 98.8306 61.3212 98.5748 61.6049 98.3255C61.7504 98.2037 61.8973 98.0824 62.0476 97.9649C62.2026 97.8513 62.3602 97.736 62.5342 97.6489ZM62.5342 97.6489C62.4883 97.7318 62.4468 97.8134 62.4061 97.8955L62.2897 98.1445C62.2107 98.3085 62.1355 98.4747 62.0617 98.6419C61.907 98.9708 61.7536 99.3015 61.5884 99.6254C61.4256 99.9518 61.2558 100.274 61.0708 100.595C60.9776 100.755 60.8861 100.918 60.7775 101.08C60.7235 101.161 60.6687 101.244 60.6025 101.332C60.5667 101.379 60.5367 101.42 60.4853 101.477C60.4631 101.502 60.4378 101.53 60.3953 101.568L60.3666 101.594C60.3588 101.602 60.3478 101.611 60.3241 101.629C60.2839 101.658 60.2413 101.685 60.198 101.709L60.3786 100.551C60.6032 100.736 60.8409 100.909 61.0804 101.079C61.3184 101.25 61.5681 101.406 61.8141 101.56C62.0599 101.712 62.3156 101.85 62.5559 101.968C62.6751 102.026 62.7946 102.077 62.887 102.108C62.9308 102.123 62.9744 102.133 62.9689 102.13C62.9671 102.13 62.9462 102.124 62.8896 102.127C62.8755 102.127 62.8436 102.129 62.8217 102.133C62.799 102.137 62.7776 102.141 62.7275 102.154C62.6811 102.168 62.6527 102.18 62.5974 102.207C62.5376 102.236 62.4807 102.275 62.4332 102.32L62.5835 102.212C62.786 102.101 63.0229 101.906 63.2496 101.697C63.4818 101.49 63.7018 101.251 63.9246 101.011C64.1458 100.769 64.3572 100.514 64.5636 100.26C64.6661 100.132 64.7626 100.002 64.8539 99.8777C64.8996 99.8161 64.9427 99.7544 64.9776 99.7025C64.9943 99.6781 65.0094 99.6536 65.0154 99.6486C65.0186 99.6474 65.0183 99.6474 65.011 99.6878L65.0053 99.7352C65.0035 99.7659 65.0008 99.7726 65.0061 99.8493L65.0126 99.8949L65.0275 99.9583C65.0465 100.026 65.0765 100.089 65.1188 100.148C65.1814 100.243 65.2894 100.33 65.3901 100.375C65.4786 100.417 65.5871 100.441 65.6849 100.44L65.3447 100.353C65.2064 100.259 65.0728 100.157 64.938 100.06C64.801 99.9628 64.6752 99.859 64.5489 99.7534C64.424 99.6474 64.2938 99.5475 64.1758 99.4357L63.8176 99.1056C63.5872 98.8772 63.3579 98.6501 63.146 98.4046C62.9303 98.1643 62.7223 97.9155 62.5342 97.6489Z" fill="#35225F"/>
</g>
<defs>
<filter id="filter0_d_4631_3604" x="0" y="0" width="142" height="136.174" filterUnits="userSpaceOnUse" color-interpolation-filters="sRGB">
<feFlood flood-opacity="0" result="BackgroundImageFix"/>
<feColorMatrix in="SourceAlpha" type="matrix" values="0 0 0 0 0 0 0 0 0 0 0 0 0 0 0 0 0 0 127 0" result="hardAlpha"/>
<feOffset dy="4"/>
<feGaussianBlur stdDeviation="2"/>
<feComposite in2="hardAlpha" operator="out"/>
<feColorMatrix type="matrix" values="0 0 0 0 0 0 0 0 0 0 0 0 0 0 0 0 0 0 0.25 0"/>
<feBlend mode="normal" in2="BackgroundImageFix" result="effect1_dropShadow_4631_3604"/>
<feBlend mode="normal" in="SourceGraphic" in2="effect1_dropShadow_4631_3604" result="shape"/>
</filter>
</defs>
</svg>
