<svg width="515" height="539" viewBox="0 0 515 539" fill="none" xmlns="http://www.w3.org/2000/svg">
<path d="M514.293 269.501C514.293 411.322 399.31 526.305 257.487 526.305C115.659 526.305 0.703125 411.322 0.703125 269.501C0.703125 127.657 115.659 12.6951 257.487 12.6951C399.31 12.6951 514.293 127.658 514.293 269.501Z" fill="url(#paint0_linear_4403_509)"/>
<path d="M252.99 171.81C252.99 171.81 251.9 170.701 249.788 168.74C247.694 166.763 244.494 164.013 240.348 160.716C236.182 157.448 231.015 153.676 224.847 149.952C218.694 146.22 211.5 142.575 203.437 139.792C202.431 139.45 201.414 139.105 200.387 138.756C199.352 138.444 198.297 138.174 197.243 137.876C196.181 137.61 195.138 137.228 194.041 137.048C192.957 136.828 191.863 136.606 190.76 136.381C190.209 136.278 189.662 136.136 189.103 136.061C188.544 135.988 187.983 135.913 187.42 135.84C186.3 135.684 185.171 135.526 184.034 135.368C182.894 135.253 181.74 135.225 180.586 135.144C180.009 135.109 179.431 135.074 178.85 135.039L177.979 134.986L177.103 135.009C167.752 134.951 158.05 136.725 148.555 140.437C147.347 140.813 146.198 141.443 145.021 141.969C143.849 142.515 142.674 143.062 141.487 143.587C139.151 144.76 136.862 146.128 134.525 147.383C132.254 148.817 130.012 150.361 127.735 151.84C125.517 153.454 123.327 155.167 121.105 156.824L120.272 157.451L119.475 158.145L117.881 159.538C116.817 160.466 115.751 161.395 114.683 162.326L113.079 163.718L111.547 165.232L108.456 168.24L105.357 171.254L103.88 172.796L102.524 174.283C100.745 176.282 99.0897 178.42 97.5237 180.63C91.1607 189.427 86.6787 199.678 84.2097 210.347L83.7297 212.344L83.3757 214.371L83.0157 216.396C82.8847 217.067 82.7757 217.743 82.7127 218.428C82.5387 219.791 82.3657 221.151 82.1927 222.506C82.0467 223.869 82.0017 225.243 81.8967 226.608L81.7567 228.655L81.7417 230.71C81.7327 232.08 81.7227 233.447 81.7137 234.809C81.7797 236.177 81.8467 237.542 81.9127 238.9C81.9747 240.261 81.9967 241.62 82.1757 242.971C83.1667 253.801 85.4987 264.324 88.4997 274.154C91.4177 284.027 95.2077 293.145 98.8927 301.507C100.809 305.659 102.591 309.689 104.547 313.397C105.489 315.275 106.407 317.106 107.299 318.885C107.734 319.784 108.198 320.65 108.675 321.488C109.138 322.339 109.594 323.175 110.043 324.001C110.94 325.655 111.809 327.258 112.647 328.804C113.482 330.356 114.29 331.853 115.126 333.251C116.763 336.087 118.266 338.691 119.623 341.043C122.353 345.753 124.623 349.39 126.118 351.917C127.625 354.435 128.403 355.811 128.403 355.811C128.403 355.811 127.274 354.755 125.207 352.716C124.174 351.692 122.901 350.429 121.404 348.944C119.907 347.454 118.153 345.768 116.353 343.724C114.509 341.72 112.503 339.462 110.304 337.006C109.759 336.388 109.183 335.772 108.631 335.115C108.09 334.449 107.538 333.77 106.977 333.078C105.852 331.691 104.686 330.254 103.482 328.769C101.011 325.839 98.6547 322.499 96.1017 319.007C93.4867 315.561 91.0887 311.667 88.4607 307.667C87.1077 305.693 85.9437 303.53 84.6857 301.365C84.0617 300.279 83.4317 299.181 82.7967 298.074C82.1607 296.965 81.5037 295.856 80.9297 294.679C79.7277 292.359 78.5557 289.967 77.3417 287.545C76.1627 285.103 75.1137 282.535 73.9697 279.968C69.6477 269.588 65.9637 258.022 64.0087 245.429C63.7027 243.871 63.5537 242.268 63.3697 240.666C63.1867 239.062 63.0087 237.451 62.8657 235.828C62.7937 234.193 62.7217 232.552 62.6497 230.905L62.5547 228.427L62.5937 225.93C62.6347 224.261 62.6217 222.585 62.7157 220.904C62.8457 219.221 62.9757 217.534 63.1067 215.842C63.1627 214.996 63.2737 214.152 63.4057 213.308L63.7757 210.773L64.1527 208.23L64.6707 205.703C66.0297 198.959 67.9967 192.231 70.7887 185.837C73.5507 179.431 76.9857 173.313 81.0067 167.628C83.0477 164.808 85.2137 162.08 87.5497 159.504L89.3197 157.602L91.0437 155.837L94.5517 152.481C99.1267 147.914 104.188 143.855 109.255 139.91C111.899 138.057 114.474 136.142 117.146 134.387C119.919 132.762 122.642 131.103 125.414 129.561C128.29 128.179 131.095 126.719 133.976 125.462C135.449 124.899 136.916 124.337 138.378 123.778C139.849 123.246 141.272 122.625 142.791 122.25C154.65 118.504 166.91 117.47 178.134 118.788C189.399 120.077 199.482 123.83 208.029 128.253C216.588 132.736 223.671 137.994 229.43 143.145C235.199 148.297 239.714 153.281 243.185 157.565C246.675 161.834 249.07 165.461 250.681 167.923C251.487 169.155 252.046 170.144 252.431 170.801C252.799 171.467 252.99 171.81 252.99 171.81Z" fill="white"/>
<path d="M268.569 217.811C269.228 219.998 269.957 222.148 270.704 224.281C271.434 226.419 272.242 228.524 273.032 230.621C274.657 234.803 276.376 238.913 278.244 242.918C280.088 246.933 282.092 250.837 284.2 254.629C286.335 258.408 288.582 262.073 290.997 265.562C292.206 267.305 293.47 268.992 294.736 270.656C296.007 272.318 297.34 273.911 298.705 275.455C300.07 276.998 301.484 278.474 302.914 279.908C304.346 281.343 305.829 282.699 307.352 283.98C308.863 285.278 310.446 286.459 312.026 287.611C313.605 288.767 315.238 289.817 316.897 290.793C318.549 291.784 320.258 292.646 321.977 293.454C323.695 294.267 325.447 294.98 327.212 295.638L326.405 295.351L327.157 295.605L327.792 295.847L328.407 296.095L329.448 296.523L331.333 297.293C332.567 297.795 333.782 298.268 335.003 298.729L338.658 300.067C339.872 300.514 341.092 300.92 342.308 301.322C343.527 301.722 344.746 302.098 345.965 302.449C346.573 302.638 347.184 302.792 347.793 302.958C348.402 303.119 349.011 303.299 349.619 303.437C350.837 303.739 352.052 304.028 353.263 304.269C354.473 304.563 355.673 304.747 356.875 304.992L355.071 304.819L355.438 304.825L355.712 304.839L355.864 304.848L356.062 304.862L356.347 304.883L356.835 304.92L357.756 304.993L359.555 305.144L363.124 305.465L370.268 306.185C372.662 306.453 375.056 306.766 377.535 307.129C378.78 307.315 380.034 307.513 381.408 307.776C382.103 307.912 382.815 308.062 383.704 308.291C384.169 308.416 384.624 308.534 385.382 308.802L386.039 309.055L386.477 309.247L386.975 309.488C387.202 309.604 387.506 309.775 387.76 309.932L388.195 310.212C388.444 310.382 388.688 310.565 388.925 310.755C389.162 310.948 389.392 311.148 389.613 311.357C390.016 311.738 390.536 312.32 390.925 312.865C391.129 313.146 391.32 313.437 391.495 313.732L391.624 313.955L391.788 314.257C391.947 314.566 392.096 314.89 392.23 315.225C392.777 316.566 393.064 318.105 393.063 319.495L393.062 320.973L392.728 322.237L392.161 324.386L391.592 326.404C391.2 327.74 390.793 329.069 390.358 330.4C389.477 333.056 388.511 335.713 387.366 338.424C386.204 341.146 384.918 343.881 382.981 346.88C381.99 348.381 380.853 349.969 379.06 351.711C378.149 352.574 377.054 353.495 375.556 354.354C374.056 355.203 372.043 355.995 369.687 356.175L365.917 355.728C366.051 355.777 366.187 355.818 366.325 355.852L366.533 355.895L366.637 355.912C366.662 355.916 366.636 355.912 366.636 355.912C366.593 355.906 366.551 355.897 366.509 355.885L365.789 355.784L363.847 355.586L359.574 355.248L350.737 354.609C344.799 354.103 338.822 353.57 332.825 352.88C329.828 352.505 326.828 352.111 323.819 351.66C320.81 351.202 317.792 350.743 314.773 350.151C311.751 349.557 308.72 348.903 305.672 348.145C304.15 347.771 302.618 347.351 301.084 346.916L298.78 346.195L296.462 345.399L297.751 345.658C297.325 345.591 296.855 345.505 296.612 345.442C296.309 345.373 296.017 345.301 295.773 345.229C295.244 345.089 294.77 344.937 294.291 344.784C293.346 344.478 292.449 344.145 291.564 343.8C289.805 343.102 288.126 342.32 286.481 341.488C284.841 340.642 283.263 339.71 281.713 338.747C280.169 337.773 278.668 336.743 277.207 335.666C275.751 334.581 274.33 333.457 272.97 332.26C271.607 331.069 270.297 329.824 269.016 328.557L267.144 326.608L265.344 324.598C264.19 323.218 263.044 321.838 261.992 320.384C260.903 318.964 259.917 317.467 258.914 315.997C257.98 314.472 257.028 312.971 256.188 311.401C255.303 309.863 254.52 308.269 253.735 306.688C253.001 305.076 252.267 303.473 251.616 301.837C250.962 300.202 250.325 298.571 249.795 296.895C249.216 295.244 248.717 293.567 248.259 291.885C247.765 290.216 247.41 288.501 247.013 286.817C246.644 285.121 246.369 283.401 246.066 281.705L248.412 286.257C249.261 287.734 249.988 289.253 250.876 290.686C251.737 292.131 252.556 293.585 253.478 294.973C254.351 296.388 255.304 297.743 256.228 299.103C257.16 300.457 258.159 301.757 259.145 303.049C260.166 304.316 261.147 305.602 262.223 306.798C263.25 308.035 264.382 309.171 265.456 310.34C266.583 311.46 267.679 312.598 268.853 313.642C269.994 314.722 271.204 315.714 272.404 316.696L274.219 318.143L276.074 319.516C277.333 320.395 278.599 321.244 279.895 322.035C281.196 322.816 282.498 323.575 283.82 324.282C285.145 324.981 286.486 325.63 287.841 326.223C289.199 326.804 290.563 327.353 291.937 327.816C293.302 328.297 294.673 328.729 296.022 329.067C296.694 329.23 297.362 329.383 297.997 329.496C298.309 329.55 298.625 329.606 298.894 329.636C299.047 329.66 299.157 329.666 299.255 329.67C299.412 329.691 299.346 329.657 299.324 329.65L299.303 329.642L300.614 329.908L302.579 330.305L304.587 330.658C305.939 330.89 307.298 331.11 308.681 331.295C311.442 331.675 314.251 331.974 317.083 332.222C319.92 332.453 322.771 332.704 325.641 332.88C328.509 333.066 331.397 333.203 334.289 333.32C340.072 333.607 345.893 333.798 351.757 333.938L360.622 334.241L365.196 334.438L366.398 334.507L367.671 334.6C368.146 334.643 368.592 334.683 369.154 334.751L370.123 334.894L370.259 334.916L370.498 334.965L370.977 335.073C371.295 335.149 371.612 335.234 371.924 335.326L368.155 334.879C367.021 334.949 366.191 335.317 365.765 335.554C365.34 335.79 365.212 335.916 365.212 335.916L365.456 335.604C365.601 335.411 365.783 335.145 365.978 334.829C366.777 333.559 367.678 331.669 368.503 329.697C369.333 327.704 370.108 325.549 370.824 323.347C371.187 322.246 371.539 321.131 371.872 320.011L372.356 318.337L372.781 316.772L372.446 319.514C372.434 320.867 372.712 322.37 373.249 323.673C373.381 324 373.527 324.313 373.684 324.613L373.961 325.116C374.125 325.397 374.304 325.672 374.496 325.939C374.86 326.454 375.358 327.005 375.736 327.36C375.927 327.545 376.128 327.723 376.336 327.892C376.544 328.06 376.759 328.219 376.979 328.366L377.318 328.589C377.508 328.707 377.75 328.839 377.911 328.921L378.209 329.067L378.445 329.171L378.689 329.265C378.894 329.334 378.782 329.294 378.679 329.268C378.431 329.2 377.995 329.103 377.541 329.006C376.613 328.81 375.555 328.62 374.483 328.439C372.328 328.076 370.075 327.762 367.819 327.438L360.998 326.502L357.576 326.071L355.879 325.866L355.05 325.77L354.664 325.727L354.511 325.709C354.507 325.708 354.457 325.703 354.49 325.705L354.533 325.707L354.753 325.717L355.065 325.721L353.261 325.548C351.78 325.201 350.275 324.899 348.823 324.494C347.357 324.11 345.919 323.674 344.487 323.227C343.766 323.014 343.065 322.764 342.356 322.53C341.65 322.29 340.939 322.061 340.244 321.802C338.843 321.304 337.456 320.783 336.083 320.241C334.712 319.696 333.344 319.145 331.998 318.558C330.644 317.989 329.316 317.365 327.996 316.741C326.678 316.115 325.364 315.473 324.085 314.825L322.2 313.867L321.355 313.434L321.023 313.262L320.982 313.241L321.046 313.266L321.177 313.311C321.266 313.338 321.356 313.361 321.447 313.378L320.64 313.09C318.407 312.036 316.194 310.936 314.076 309.662C311.962 308.383 309.89 307.037 307.919 305.56C303.955 302.637 300.277 299.355 296.992 295.751C293.691 292.165 290.685 288.355 288.064 284.322C285.428 280.302 283.066 276.149 281.041 271.857C280.025 269.714 279.071 267.551 278.174 265.373C277.276 263.194 276.485 260.976 275.721 258.76C274.97 256.537 274.242 254.318 273.624 252.064C272.997 249.814 272.421 247.556 271.893 245.293C270.867 240.755 270.041 236.192 269.469 231.605C269.168 229.315 268.961 227.014 268.786 224.718C268.639 222.412 268.535 220.11 268.569 217.811Z" fill="white"/>
<path d="M356.821 345.608C357.411 346.522 357.916 347.497 358.387 348.493C358.834 349.494 359.268 350.521 359.63 351.576C359.987 352.632 360.33 353.712 360.595 354.819C360.857 355.925 361.085 357.055 361.257 358.211C361.419 359.366 361.517 360.545 361.563 361.745C361.616 362.948 361.581 364.172 361.469 365.406C361.399 366.024 361.337 366.648 361.246 367.273L360.901 369.159C360.754 369.787 360.574 370.409 360.397 371.04C360.209 371.666 359.967 372.282 359.744 372.907C359.252 374.137 358.702 375.379 358.01 376.548C357.676 377.142 357.317 377.722 356.911 378.267C356.507 378.811 356.133 379.403 355.682 379.907L354.338 381.457L352.881 382.875C352.398 383.37 351.86 383.746 351.334 384.164C350.803 384.565 350.274 385.009 349.721 385.344L348.057 386.409C347.497 386.756 346.929 387.028 346.358 387.339C345.214 387.985 344.059 388.429 342.887 388.909C341.716 389.384 340.559 389.714 339.374 390.093C338.208 390.402 337.043 390.67 335.865 390.946L335.705 390.983L334.387 390.986L330.377 390.993L326.501 390.883C323.926 390.771 321.36 390.61 318.802 390.369C316.241 390.144 313.69 389.84 311.142 389.485C308.593 389.137 306.052 388.712 303.517 388.236C300.982 387.759 298.454 387.212 295.934 386.615C293.415 385.993 290.903 385.348 288.407 384.589C287.154 384.239 285.912 383.839 284.67 383.424C283.428 383.008 282.185 382.623 280.954 382.154L277.263 380.771L273.603 379.251C271.177 378.196 268.768 377.068 266.398 375.829C265.211 375.205 264.036 374.573 262.864 373.922C261.697 373.244 260.547 372.534 259.394 371.841C258.236 371.164 257.124 370.34 255.997 369.595C255.435 369.215 254.874 368.837 254.325 368.434L252.693 367.175C251.614 366.32 250.516 365.539 249.476 364.607C248.434 363.691 247.407 362.774 246.396 361.832C245.412 360.834 244.416 359.868 243.469 358.852C242.519 357.836 241.641 356.708 240.741 355.65C239.818 354.624 239.053 353.39 238.245 352.246L237.062 350.513C236.701 349.898 236.365 349.267 236.021 348.65C235.349 347.404 234.631 346.224 234.129 344.874L233.323 342.927L232.93 341.963L232.63 340.942C232.254 339.577 231.825 338.275 231.584 336.904C231.365 335.522 231.197 334.154 231.07 332.813C231.966 333.841 232.82 334.838 233.625 335.821C234 336.327 234.524 336.746 234.952 337.205L236.264 338.547L236.914 339.2L237.617 339.811L239.002 341.012C239.887 341.821 240.867 342.541 241.825 343.249C242.3 343.608 242.781 343.951 243.238 344.313L244.726 345.289C245.715 345.932 246.664 346.582 247.698 347.154C248.722 347.731 249.683 348.352 250.726 348.878C251.783 349.388 252.789 349.95 253.809 350.479C255.94 351.436 257.991 352.453 260.154 353.316L261.75 353.986L263.383 354.602C264.474 355.009 265.528 355.454 266.633 355.834C267.732 356.222 268.833 356.595 269.917 356.999L273.239 358.088C274.331 358.477 275.466 358.789 276.582 359.134C277.697 359.483 278.803 359.844 279.941 360.144L283.318 361.123L286.72 362.053C289.003 362.636 291.269 363.271 293.574 363.816C295.862 364.402 298.175 364.929 300.478 365.49L303.952 366.289L307.437 367.062L314.435 368.566L321.463 370.016L328.509 371.405L332.025 372.076L335.42 372.704L333.941 372.743L336.337 372.684C337.09 372.588 337.905 372.588 338.643 372.472C339.375 372.35 340.153 372.277 340.845 372.107C341.197 372.027 341.579 371.977 341.918 371.878L342.94 371.577C343.301 371.496 343.594 371.34 343.926 371.222C344.247 371.094 344.593 370.98 344.891 370.825L345.841 370.392L346.737 369.87C347.056 369.709 347.302 369.473 347.601 369.279C347.904 369.087 348.166 368.853 348.437 368.617C349.017 368.178 349.529 367.642 350.05 367.081C350.29 366.784 350.56 366.499 350.796 366.182C351.024 365.858 351.255 365.531 351.506 365.202L352.179 364.142L352.799 363.005C353.571 361.437 354.295 359.701 354.818 357.837C355.106 356.908 355.349 355.948 355.564 354.968C355.773 353.987 355.984 352.982 356.137 351.96C356.292 350.938 356.449 349.896 356.554 348.84C356.667 347.779 356.768 346.706 356.821 345.608Z" fill="white"/>
<path d="M334.32 385.227C335.177 386.764 335.751 388.444 336.241 390.18C336.69 391.92 337.001 393.736 337.106 395.616C337.177 396.557 337.175 397.512 337.118 398.479C337.073 399.447 336.968 400.429 336.807 401.42C336.635 402.406 336.387 403.395 336.094 404.389L335.593 405.875C335.396 406.363 335.193 406.855 334.971 407.34C334.498 408.292 333.992 409.253 333.384 410.157C333.096 410.623 332.781 411.069 332.442 411.497C332.103 411.924 331.787 412.392 331.404 412.776L330.274 413.979L329.06 415.08C328.651 415.455 328.216 415.762 327.783 416.089C327.347 416.403 326.912 416.758 326.46 417.025C325.56 417.597 324.635 418.148 323.697 418.593C322.756 419.098 321.808 419.455 320.849 419.834C319.887 420.219 318.942 420.474 317.969 420.774C317.013 421.024 316.061 421.231 315.095 421.45L316.618 421.167C316.27 421.268 315.916 421.354 315.558 421.423L314.98 421.529L314.351 421.647L313.334 421.828C312.703 421.928 312.063 422.037 311.459 422.114C310.23 422.275 309.032 422.406 307.838 422.508C305.448 422.696 303.079 422.791 300.719 422.765C298.356 422.752 296.006 422.628 293.659 422.43C291.315 422.226 288.983 421.912 286.66 421.536L283.189 420.891L279.745 420.109C277.459 419.535 275.188 418.893 272.945 418.156C270.706 417.407 268.48 416.61 266.299 415.686C264.108 414.797 261.964 413.775 259.846 412.715C257.735 411.631 255.656 410.488 253.638 409.229C252.617 408.626 251.618 407.982 250.639 407.301C249.66 406.623 248.658 405.997 247.713 405.265C245.803 403.841 243.919 402.396 242.136 400.808C240.308 399.296 238.625 397.581 236.933 395.924C235.305 394.174 233.67 392.459 232.193 390.58C230.692 388.729 229.263 386.827 227.949 384.832C226.592 382.887 225.405 380.794 224.257 378.709C223.674 377.678 223.165 376.581 222.668 375.486C222.164 374.398 221.697 373.286 221.258 372.163C223.403 373.184 225.348 374.342 227.346 375.397C229.346 376.449 231.245 377.56 233.208 378.552C234.194 379.042 235.108 379.608 236.079 380.094C237.054 380.572 238.018 381.054 238.961 381.552C239.903 382.054 240.856 382.527 241.818 382.979L244.648 384.384C246.569 385.247 248.416 386.191 250.322 387.003C251.276 387.409 252.19 387.873 253.143 388.261L255.97 389.463C257.866 390.225 259.733 391.02 261.631 391.724L264.461 392.801C265.415 393.13 266.363 393.468 267.303 393.821C269.211 394.455 271.091 395.149 273.01 395.723C273.962 396.03 274.908 396.353 275.873 396.616C276.834 396.891 277.778 397.217 278.744 397.471L281.627 398.281C282.594 398.528 283.562 398.769 284.523 399.04C286.461 399.516 288.399 399.988 290.346 400.423L293.273 401.056L296.209 401.642C298.171 401.991 300.135 402.371 302.102 402.666C304.069 402.987 306.04 403.264 307.989 403.495C308.964 403.627 309.936 403.732 310.876 403.816L312.253 403.949L312.858 404.002L313.039 404.032C313.33 404.013 312.567 404.118 312.207 404.274L313.73 403.991L315.528 404.086C316.092 404.058 316.71 404.112 317.263 404.068C317.821 404.032 318.404 404.017 318.932 403.938C319.496 403.898 320.005 403.783 320.539 403.688C320.82 403.658 321.05 403.566 321.312 403.506C321.566 403.439 321.841 403.389 322.075 403.289L322.833 403.043L323.559 402.728C323.817 402.632 324.035 402.492 324.284 402.375C324.535 402.26 324.776 402.125 325.003 401.969C325.488 401.69 325.932 401.336 326.395 400.97C326.608 400.77 326.839 400.576 327.076 400.379L327.738 399.719C328.165 399.252 328.592 398.753 328.983 398.202C329.396 397.661 329.794 397.082 330.156 396.461C330.526 395.844 330.869 395.189 331.209 394.511C331.554 393.834 331.853 393.122 332.146 392.39C332.454 391.659 332.723 390.902 332.979 390.127C333.241 389.352 333.483 388.555 333.705 387.742C333.924 386.92 334.144 386.089 334.32 385.227Z" fill="white"/>
<path d="M268.831 405.794C268.831 405.794 269.05 405.936 269.402 406.247C269.742 406.563 270.281 407.024 270.844 407.685C271.977 409.005 273.442 411.051 274.441 414.047C274.917 415.547 275.347 417.277 275.388 419.282C275.444 421.271 275.178 423.543 274.304 425.871C273.45 428.203 271.864 430.481 269.916 432.202C268.947 433.116 267.892 433.771 266.807 434.434C265.743 434.954 264.606 435.542 263.535 435.838L261.894 436.321C261.363 436.442 260.833 436.519 260.303 436.61C259.229 436.824 258.218 436.85 257.213 436.886C256.191 436.947 255.246 436.854 254.302 436.771C253.832 436.728 253.361 436.68 252.906 436.618C252.46 436.544 252.018 436.445 251.582 436.357C249.818 436.032 248.231 435.471 246.739 434.912C245.263 434.327 243.942 433.598 242.728 432.949C241.547 432.213 240.492 431.49 239.582 430.8C238.672 430.114 237.926 429.404 237.315 428.817C236.702 428.238 236.252 427.696 235.937 427.365C235.625 427.018 235.469 426.807 235.469 426.807C235.469 426.807 235.711 426.705 236.148 426.566C236.581 426.441 237.229 426.199 238.013 426.007C238.804 425.784 239.739 425.61 240.796 425.364C241.851 425.125 243.014 424.912 244.252 424.729C245.482 424.493 246.796 424.304 248.13 424.122C249.457 423.896 250.837 423.769 252.169 423.536C252.506 423.493 252.844 423.438 253.182 423.408C253.506 423.348 253.831 423.289 254.16 423.228C254.808 423.115 255.478 423.046 256.07 422.888C256.684 422.768 257.307 422.664 257.841 422.5C258.117 422.428 258.401 422.359 258.676 422.303C258.92 422.215 259.163 422.129 259.41 422.054L259.785 421.957C259.899 421.916 259.995 421.862 260.101 421.819C260.307 421.725 260.532 421.665 260.745 421.59C261.078 421.384 261.5 421.273 261.776 421.079C262.399 420.733 262.969 420.424 263.533 419.861C264.095 419.307 264.666 418.526 265.178 417.582C265.697 416.647 266.134 415.544 266.507 414.453C266.902 413.357 267.197 412.247 267.482 411.223C267.765 410.195 267.981 409.251 268.188 408.444C268.598 406.756 268.831 405.794 268.831 405.794Z" fill="white"/>
<path d="M380.554 318.627L384.717 314.33L388.804 309.991L392.784 305.557L396.657 301.039C401.747 294.961 406.541 288.665 410.877 282.096C413.044 278.815 415.118 275.48 417.013 272.054C418.938 268.645 420.704 265.163 422.33 261.63C423.975 258.106 425.379 254.485 426.653 250.843C427.937 247.205 429.026 243.512 429.877 239.78C431.582 232.321 432.498 224.744 432.418 217.22C432.32 209.701 431.354 202.245 429.432 195.071C428.49 191.481 427.293 187.969 425.92 184.549C424.547 181.129 422.982 177.796 421.211 174.62C420.328 173.031 419.398 171.48 418.427 169.987C417.472 168.527 416.398 167.004 415.478 165.882C414.37 164.586 412.9 162.716 411.787 161.512L410.012 159.511L408.123 157.505C405.571 154.879 402.935 152.376 400.175 150.081C397.407 147.798 394.541 145.695 391.578 143.809C385.682 139.984 379.363 137.078 372.794 135.194C366.222 133.325 359.415 132.395 352.53 132.451C345.646 132.505 338.705 133.5 331.868 135.261C325.023 136.988 318.272 139.477 311.767 142.585C308.514 144.134 305.323 145.844 302.233 147.684C300.687 148.599 299.162 149.54 297.694 150.513C296.958 150.997 296.243 151.49 295.555 151.978L294.569 152.697L293.833 153.269L289.82 156.963C288.337 158.311 286.976 159.635 285.347 161.013L280.623 165.108C279.049 166.489 277.466 167.722 275.887 169.036C274.315 170.341 272.724 171.619 271.093 172.849C269.467 174.087 267.875 175.358 266.213 176.555C264.56 177.763 262.932 178.988 261.234 180.163C260.385 180.755 259.568 181.351 258.694 181.938C257.812 182.534 257.008 183.093 256.006 183.744L257.858 182.181L256.877 183.185L255.969 184.084L254.158 185.819C252.947 186.956 251.721 188.064 250.474 189.149C247.986 191.325 245.404 193.405 242.699 195.374C239.991 197.344 237.166 199.216 234.158 200.939C232.646 201.795 231.091 202.614 229.476 203.383C227.85 204.141 226.164 204.848 224.399 205.476L225.442 205.021L224.82 205.31L224.518 205.44L224.367 205.499L223.812 205.71L223.048 205.985L221.789 206.444C220.994 206.744 220.231 207.06 219.472 207.397C217.96 208.076 216.491 208.854 215.052 209.709C214.336 210.142 213.629 210.595 212.932 211.069C212.237 211.547 211.556 212.049 210.881 212.565C210.216 213.095 209.552 213.63 208.911 214.199C208.269 214.768 207.629 215.343 207.02 215.958C204.546 218.376 202.317 221.14 200.324 224.141C199.334 225.65 198.397 227.211 197.517 228.83C197.055 229.623 196.666 230.473 196.235 231.291C195.822 232.124 195.443 232.983 195.042 233.828L193.655 236.746L191.801 237.833L188.191 239.951C187.131 240.586 186.086 241.238 185.063 241.909C183.016 243.251 181.045 244.664 179.218 246.148C177.397 247.631 175.71 249.187 174.309 250.747C172.912 252.298 171.844 253.902 171.343 255.126C171.092 255.736 170.952 256.229 170.916 256.604C170.878 256.986 170.883 257.295 170.994 257.72C171.105 258.139 171.354 258.675 171.787 259.279C172.216 259.882 172.815 260.531 173.512 261.189C174.247 261.834 175.047 262.49 175.962 263.103C176.859 263.725 177.841 264.313 178.856 264.881C179.883 265.442 180.946 265.98 182.043 266.493C183.141 267.004 184.272 267.484 185.415 267.956L184.146 267.655C184.261 267.682 184.589 267.733 184.905 267.759C185.217 267.796 185.565 267.814 185.904 267.839C186.596 267.877 187.31 267.892 188.032 267.891C189.477 267.886 190.957 267.807 192.437 267.668C193.92 267.542 195.405 267.305 196.891 267.056C198.372 266.772 199.855 266.451 201.326 266.054C204.272 265.273 207.169 264.231 210.021 263.021L212.146 262.068L214.244 261.032C215.621 260.29 217.007 259.551 218.345 258.715C219.026 258.317 219.696 257.899 220.35 257.45C221.006 257.005 221.684 256.592 222.326 256.121C223.617 255.188 224.924 254.269 226.172 253.255C227.458 252.292 228.647 251.195 229.89 250.159C231.063 249.039 232.304 247.986 233.432 246.8L235.159 245.055L236.835 243.246C237.973 242.055 239.021 240.774 240.096 239.511C241.18 238.255 242.159 236.905 243.202 235.6L246.168 231.541L246.384 231.241L248.917 228.661C249.773 227.806 250.639 226.96 251.513 226.125C253.269 224.461 255.077 222.853 256.946 221.317C258.822 219.793 260.749 218.313 262.879 217.125C263.946 216.553 265.08 216 266.364 215.935C266.993 215.914 267.718 216.123 268.109 216.679C268.506 217.209 268.614 217.854 268.656 218.459C268.518 217.869 268.295 217.272 267.888 216.898C267.49 216.508 266.938 216.468 266.425 216.57C265.379 216.823 264.411 217.486 263.501 218.176C261.684 219.604 260.046 221.315 258.466 223.069C256.888 224.83 255.387 226.676 253.912 228.541C253.173 229.473 252.443 230.412 251.724 231.361L249.582 234.243L249.798 233.943C248.961 235.479 248.156 237.043 247.282 238.566C246.369 240.061 245.515 241.606 244.543 243.071C243.58 244.542 242.639 246.037 241.592 247.457L240.048 249.61L238.416 251.695C237.347 253.108 236.145 254.406 235.007 255.768C233.791 257.054 232.625 258.401 231.339 259.626C230.092 260.895 228.783 262.1 227.448 263.28C226.787 263.878 226.083 264.423 225.401 264.998C224.72 265.575 224.018 266.125 223.3 266.656C221.892 267.756 220.417 268.763 218.937 269.773L216.669 271.213C215.904 271.68 215.123 272.116 214.347 272.57C211.222 274.336 207.945 275.835 204.568 277.103C202.88 277.739 201.159 278.291 199.42 278.8C197.672 279.276 195.912 279.73 194.114 280.064C192.319 280.407 190.505 280.699 188.645 280.857C187.715 280.938 186.774 280.999 185.813 281.028C185.324 281.036 184.845 281.05 184.332 281.041C183.821 281.035 183.324 281.021 182.617 280.958L182.165 280.918L181.347 280.658C179.987 280.224 178.624 279.774 177.259 279.27C175.893 278.765 174.523 278.209 173.15 277.599C171.776 276.972 170.399 276.297 169.018 275.505C167.638 274.731 166.253 273.812 164.879 272.781C163.504 271.711 162.145 270.474 160.86 268.96C159.582 267.449 158.376 265.623 157.495 263.465C156.609 261.319 156.103 258.851 156.084 256.457C156.049 254.049 156.494 251.791 157.126 249.789C158.43 245.773 160.415 242.722 162.448 240.062C164.501 237.41 166.704 235.169 168.959 233.113C171.215 231.06 173.529 229.202 175.885 227.461C177.062 226.59 178.252 225.752 179.449 224.938L182.668 222.806L179.428 226.812C179.869 225.72 180.289 224.62 180.754 223.533C181.242 222.454 181.685 221.357 182.22 220.294C183.227 218.142 184.381 216.048 185.605 213.988C188.078 209.883 190.954 205.96 194.271 202.408C195.09 201.51 195.954 200.652 196.828 199.806C197.703 198.959 198.612 198.149 199.533 197.35C200.465 196.563 201.413 195.798 202.386 195.062C203.362 194.329 204.358 193.624 205.373 192.946C206.393 192.275 207.429 191.629 208.492 191.03C209.552 190.424 210.632 189.856 211.725 189.32C212.819 188.788 213.93 188.285 215.031 187.828L216.629 187.185L217.297 186.92L217.455 186.853L217.482 186.841L217.355 186.893C217.263 186.933 217.171 186.977 217.083 187.024L218.127 186.567C219.187 186.145 220.272 185.649 221.368 185.096C222.466 184.526 223.571 183.898 224.678 183.225C226.89 181.859 229.096 180.3 231.264 178.614C233.425 176.915 235.567 175.117 237.653 173.23C238.695 172.288 239.722 171.322 240.727 170.343L242.209 168.869L242.922 168.134L243.538 167.48L244.271 166.703L245.391 165.917L247.574 164.384C248.324 163.86 249.089 163.278 249.846 162.73C251.368 161.634 252.871 160.455 254.381 159.307C255.899 158.173 257.37 156.946 258.864 155.765C260.362 154.587 261.829 153.363 263.297 152.14C264.749 150.915 266.276 149.711 267.669 148.47L271.896 144.763C273.289 143.586 274.769 142.135 276.209 140.809L278.383 138.779L279.47 137.766L280.013 137.259L280.327 136.968L280.685 136.647L280.931 136.437C281.576 135.893 282.02 135.557 282.518 135.171L283.914 134.139C284.829 133.481 285.731 132.85 286.635 132.248C288.442 131.039 290.249 129.896 292.081 128.812C295.751 126.657 299.487 124.688 303.31 122.897C310.945 119.312 318.912 116.42 327.164 114.393C335.417 112.388 343.977 111.346 352.61 111.442C361.238 111.529 369.949 112.879 378.265 115.593C386.588 118.278 394.505 122.257 401.658 127.236C405.227 129.737 408.618 132.469 411.831 135.371C415.036 138.284 418.034 141.389 420.888 144.6L422.991 147.036L425.075 149.603L426.104 150.892L426.999 152.097L428.853 154.594C430.345 156.66 431.469 158.499 432.612 160.461C433.727 162.4 434.761 164.36 435.728 166.349C437.666 170.323 439.324 174.414 440.742 178.59C442.12 182.779 443.263 187.048 444.105 191.38C445.831 200.033 446.418 208.924 445.822 217.675C445.249 226.428 443.549 235.031 440.87 243.183C438.229 251.354 434.632 259.071 430.41 266.27C426.21 273.487 421.336 280.169 416.093 286.405C410.808 292.612 405.153 298.39 399.197 303.744C397.712 305.086 396.188 306.381 394.676 307.683L390.053 311.468L385.349 315.129L380.554 318.627Z" fill="white"/>
<path d="M120.195 364.708C121.562 362.047 123.016 359.452 124.473 356.859C125.935 354.271 127.435 351.714 128.953 349.17C131.994 344.084 135.115 339.062 138.317 334.103L139.559 332.18L141.821 333.21C144.089 334.245 146.279 335.349 148.493 336.462C150.697 337.59 152.878 338.769 155.059 339.999C157.231 341.259 159.377 342.547 161.562 344.103C162.108 344.506 162.652 344.917 163.227 345.417C163.505 345.646 163.815 345.949 164.117 346.244L164.605 346.778C164.786 346.996 164.987 347.275 165.164 347.531C165.265 347.684 165.403 347.947 165.505 348.162L165.658 348.506L165.694 348.592L165.712 348.636L165.793 348.898L165.806 348.956C165.801 348.934 165.9 349.362 165.932 349.648C165.952 349.798 165.968 349.971 165.976 350.101L165.982 350.268C166.002 350.734 165.998 351.089 165.991 351.465C165.979 352.202 165.934 352.888 165.887 353.585C165.651 356.335 165.204 359.011 164.548 361.675C163.871 364.329 162.967 366.957 161.722 369.492C161.104 370.758 160.358 371.985 159.534 373.166C158.718 374.352 157.744 375.465 156.678 376.478C155.612 377.499 154.375 378.358 153.086 379.086C151.787 379.817 150.378 380.3 148.965 380.648L146.421 380.014C146.734 380.324 147.216 380.594 147.701 380.68C147.821 380.703 147.94 380.717 148.055 380.722L148.224 380.723L148.321 380.719H148.333C148.349 380.717 148.365 380.715 148.38 380.71C148.406 380.698 148.273 380.72 148.227 380.724L147.739 380.793L146.645 380.953C145.901 381.052 145.15 381.15 144.392 381.205C142.878 381.325 141.348 381.358 139.815 381.28C139.048 381.243 138.282 381.157 137.518 381.061C136.753 380.95 135.991 380.817 135.234 380.646C134.477 380.468 133.726 380.267 132.987 380.006C132.248 379.756 131.517 379.467 130.809 379.127C130.093 378.808 129.41 378.405 128.738 378C128.077 377.565 127.431 377.118 126.827 376.608C126.513 376.372 126.231 376.091 125.946 375.819C125.661 375.546 125.373 375.283 125.118 374.98C124.857 374.685 124.591 374.397 124.342 374.097L123.642 373.155C123.201 372.512 122.787 371.85 122.426 371.167C122.066 370.482 121.724 369.796 121.45 369.078C121.141 368.379 120.947 367.633 120.717 366.913C120.496 366.189 120.358 365.438 120.195 364.708ZM120.195 364.708C120.559 365.364 120.872 366.034 121.243 366.667C121.629 367.294 121.985 367.928 122.421 368.505C122.812 369.109 123.26 369.664 123.713 370.206C124.167 370.744 124.657 371.244 125.159 371.715L125.927 372.397L126.732 373.018C127.271 373.422 127.839 373.777 128.416 374.1C128.987 374.433 129.588 374.705 130.187 374.965C130.801 375.196 131.409 375.425 132.038 375.596C132.66 375.783 133.296 375.922 133.937 376.029C134.576 376.145 135.225 376.213 135.872 376.277C136.521 376.332 137.175 376.351 137.829 376.357C138.485 376.35 139.14 376.319 139.797 376.279C141.11 376.19 142.423 376.007 143.731 375.745C144.385 375.618 145.039 375.477 145.696 375.321L146.7 375.074L147.261 374.938C147.39 374.912 147.431 374.895 147.634 374.861L147.946 374.819L148.025 374.811L148.139 374.807L148.324 374.81C148.45 374.817 148.58 374.832 148.711 374.856C149.24 374.948 149.767 375.224 150.124 375.538L147.58 374.904C148.496 374.558 149.381 374.178 150.188 373.641C150.987 373.093 151.755 372.489 152.428 371.734C153.1 370.983 153.758 370.197 154.309 369.28C154.869 368.379 155.388 367.426 155.826 366.404C156.745 364.389 157.431 362.181 157.95 359.911C158.487 357.649 158.85 355.295 159.031 352.978C159.076 352.406 159.119 351.825 159.132 351.292C159.141 351.032 159.143 350.75 159.137 350.583L159.136 350.511C159.138 350.563 159.146 350.657 159.16 350.727C159.176 350.854 159.273 351.123 159.225 350.947L159.213 350.888L159.301 351.172C159.314 351.217 159.33 351.262 159.349 351.305C159.377 351.379 159.457 351.496 159.472 351.518C159.461 351.524 159.486 351.544 159.471 351.52C159.422 351.47 159.375 351.419 159.331 351.365C159.187 351.231 159.062 351.089 158.863 350.926C158.509 350.609 158.075 350.269 157.633 349.937C155.848 348.578 153.823 347.264 151.794 345.996C149.769 344.702 147.69 343.458 145.609 342.212C143.537 340.955 141.415 339.741 139.34 338.518L142.844 337.625C139.251 342.282 135.577 346.874 131.823 351.403C129.944 353.666 128.046 355.915 126.111 358.134C124.168 360.35 122.225 362.563 120.195 364.708Z" fill="white"/>
<path d="M174.216 357.329C176.728 357.94 179.183 358.796 181.599 359.791C184.021 360.778 186.38 361.967 188.671 363.389C190.941 364.843 193.173 366.507 195.067 368.874C195.542 369.461 195.986 370.11 196.385 370.81C196.572 371.177 196.769 371.532 196.939 371.918C197.094 372.316 197.256 372.711 197.393 373.124C197.504 373.555 197.622 373.984 197.711 374.427C197.769 374.882 197.832 375.34 197.861 375.803C197.855 376.268 197.855 376.742 197.818 377.208C197.747 377.667 197.667 378.129 197.578 378.588L197 379.674C197.154 379.52 197.318 379.247 197.376 379.109L197.361 379.163L197.307 379.327L197.161 379.765L196.848 380.705L196.187 382.617C195.729 383.891 195.225 385.152 194.696 386.408C193.64 388.924 192.409 391.384 190.967 393.776C190.244 394.974 189.459 396.144 188.588 397.277C187.713 398.408 186.761 399.509 185.7 400.547C185.165 401.066 184.602 401.563 183.998 402.03C183.39 402.492 182.77 402.95 182.084 403.345C181.421 403.761 180.694 404.112 179.951 404.428C179.203 404.746 178.411 404.979 177.607 405.18L179.357 404.181C179.018 404.533 178.52 404.881 177.959 405.073C177.681 405.17 177.393 405.229 177.121 405.254C176.984 405.266 176.852 405.27 176.725 405.266L176.489 405.253L176.166 405.205L175.845 405.142L175.678 405.099C175.464 405.043 175.257 404.982 175.111 404.932L174.194 404.615C173.626 404.402 173.073 404.188 172.533 403.966C171.451 403.524 170.394 403.065 169.343 402.587C167.244 401.63 165.195 400.565 163.157 399.426C161.121 398.275 159.13 396.999 157.159 395.477C156.172 394.7 155.205 393.844 154.247 392.741C153.771 392.197 153.291 391.535 152.853 390.738C152.432 389.876 151.998 388.771 152.086 387.303L152.079 387.523C152.093 387.161 152.168 386.698 152.245 386.428L152.4 385.971C152.511 385.655 152.593 385.505 152.692 385.264C152.88 384.854 153.064 384.473 153.251 384.116C153.623 383.388 154.001 382.709 154.382 382.028C155.139 380.669 155.945 379.365 156.75 378.065C158.365 375.468 160.053 372.938 161.825 370.467C163.586 367.991 165.437 365.577 167.407 363.259C168.408 362.113 169.43 360.985 170.515 359.915C171.061 359.383 171.632 358.876 172.237 358.409C172.831 357.95 173.48 357.476 174.216 357.329ZM174.216 357.329C173.57 357.699 173.11 358.289 172.658 358.871C172.205 359.453 171.812 360.091 171.405 360.712C170.602 361.965 169.864 363.27 169.151 364.588C167.698 367.208 166.337 369.888 164.98 372.564C163.636 375.247 162.313 377.942 161.031 380.64C160.389 381.987 159.774 383.347 159.168 384.685C158.872 385.353 158.576 386.027 158.319 386.675C158.184 387.003 158.069 387.317 157.967 387.608C157.934 387.723 157.859 387.918 157.859 387.966C157.855 387.995 157.85 388.024 157.842 388.052C157.875 387.968 157.928 387.694 157.908 387.52L157.901 387.739C157.946 387.446 157.91 387.457 158.009 387.613C158.157 387.802 158.353 388.062 158.652 388.346C159.226 388.918 160.003 389.508 160.81 390.083C162.458 391.232 164.322 392.254 166.206 393.245C168.099 394.234 170.06 395.133 172.025 396.004C173.008 396.438 173.998 396.856 174.981 397.245L176.434 397.793L177.095 398.014L177.326 398.083C177.336 398.086 177.366 398.096 177.36 398.095C177.322 398.084 177.282 398.076 177.243 398.07C177.203 398.065 177.164 398.062 177.124 398.061L176.914 398.046C176.795 398.043 176.671 398.045 176.544 398.057C176.289 398.079 176.018 398.137 175.757 398.231C175.23 398.419 174.767 398.763 174.462 399.11L176.212 398.111C176.627 398.001 177.046 397.894 177.464 397.719C177.881 397.544 178.303 397.356 178.717 397.098C179.137 396.87 179.547 396.567 179.957 396.267C180.365 395.955 180.766 395.613 181.168 395.255C182.771 393.8 184.216 391.952 185.564 389.975C186.91 387.991 188.116 385.837 189.262 383.624C189.831 382.515 190.366 381.38 190.897 380.235L191.681 378.502L192.072 377.611L192.28 377.136L192.41 376.846L192.49 376.674C192.584 376.464 192.787 376.119 192.98 375.893L192.402 376.979C192.448 376.785 192.503 376.594 192.568 376.4C192.596 376.202 192.62 376.006 192.661 375.806L192.673 375.182L192.596 374.524L192.428 373.837C192.356 373.603 192.253 373.368 192.172 373.128C191.962 372.655 191.738 372.163 191.442 371.685C191.159 371.203 190.837 370.722 190.475 370.258C190.128 369.785 189.727 369.337 189.339 368.873C188.925 368.428 188.516 367.974 188.069 367.545C187.639 367.102 187.168 366.693 186.712 366.265C184.849 364.587 182.814 363.047 180.72 361.558C178.617 360.081 176.443 358.683 174.216 357.329Z" fill="white"/>
<path d="M203.283 385.41C205.15 385.753 206.973 386.305 208.774 386.962C210.58 387.614 212.342 388.426 214.066 389.428C215.775 390.455 217.468 391.643 218.95 393.417C219.688 394.304 220.368 395.37 220.805 396.699C221.247 398.011 221.363 399.629 220.999 401.083L220.425 402.167C220.581 402.004 220.74 401.743 220.81 401.583L220.808 401.605C220.811 401.607 220.797 401.652 220.78 401.707L220.683 402.02L220.466 402.71L220.002 404.124C219.68 405.069 219.316 406.004 218.938 406.939C218.182 408.81 217.285 410.644 216.222 412.44C215.69 413.34 215.106 414.221 214.452 415.079C213.795 415.936 213.077 416.774 212.268 417.571C211.86 417.97 211.429 418.354 210.961 418.715C210.49 419.074 210.011 419.428 209.475 419.737C208.958 420.06 208.386 420.338 207.8 420.586C207.211 420.836 206.583 421.022 205.945 421.179L207.168 420.641C206.43 421.151 205.783 421.329 205.278 421.425C204.766 421.516 204.343 421.527 203.967 421.517C203.227 421.49 202.642 421.377 202.092 421.253C201.008 420.994 200.092 420.651 199.204 420.28C197.44 419.534 195.859 418.612 194.311 417.612C192.768 416.6 191.312 415.459 189.893 414.092C189.182 413.403 188.5 412.644 187.834 411.682C187.504 411.194 187.175 410.652 186.882 409.962C186.603 409.267 186.309 408.37 186.394 407.155L186.387 407.369C186.389 407.239 186.398 407.109 186.412 406.979C186.427 406.84 186.449 406.717 186.458 406.681C186.481 406.57 186.517 406.419 186.541 406.342C186.587 406.189 186.638 406.041 186.677 405.945C186.762 405.722 186.836 405.561 186.911 405.399C187.059 405.084 187.202 404.808 187.345 404.539C187.631 404.004 187.917 403.506 188.206 403.01C188.778 402.021 189.389 401.079 189.997 400.14C191.217 398.268 192.496 396.449 193.842 394.681C195.178 392.906 196.592 391.187 198.093 389.542C198.86 388.733 199.643 387.936 200.47 387.183C200.883 386.806 201.328 386.459 201.783 386.131C202.24 385.816 202.733 385.482 203.283 385.41ZM203.283 385.41C202.824 385.703 202.519 386.156 202.206 386.591C201.901 387.036 201.635 387.512 201.361 387.978C200.816 388.915 200.318 389.888 199.838 390.871C198.854 392.819 197.93 394.805 196.998 396.779C196.079 398.76 195.167 400.742 194.279 402.718L192.992 405.673C192.786 406.159 192.585 406.645 192.409 407.109C192.322 407.34 192.241 407.567 192.18 407.761C192.151 407.854 192.124 407.95 192.121 407.989C192.113 408.023 192.125 408.008 192.133 407.987C192.137 407.976 192.161 407.894 192.169 407.849L192.2 407.654C192.211 407.558 192.216 407.462 192.215 407.369L192.208 407.582C192.243 407.242 192.196 407.204 192.266 407.294C192.332 407.388 192.464 407.575 192.64 407.776C192.992 408.188 193.502 408.651 194.037 409.105C195.121 410.024 196.411 410.856 197.709 411.633C199.01 412.409 200.387 413.083 201.706 413.619C202.359 413.883 203.018 414.106 203.554 414.22C203.814 414.278 204.051 414.304 204.14 414.303C204.179 414.303 204.171 414.293 204.068 414.311C203.97 414.333 203.727 414.376 203.335 414.644L204.559 414.106C204.808 414.039 205.062 413.979 205.321 413.871C205.58 413.763 205.846 413.649 206.113 413.484C206.382 413.341 206.652 413.142 206.923 412.945C207.193 412.742 207.464 412.514 207.738 412.275C208.834 411.304 209.849 410.02 210.818 408.638C211.784 407.251 212.659 405.725 213.504 404.156C213.924 403.369 214.317 402.56 214.713 401.745L215.3 400.506L215.595 399.865L215.756 399.512L215.861 399.283L215.928 399.141C216.023 398.929 216.212 398.615 216.395 398.399L215.822 399.483C215.989 399.07 216.085 398.666 216.013 398.108C215.944 397.56 215.696 396.906 215.332 396.233C214.583 394.887 213.402 393.539 212.108 392.3C210.812 391.042 209.371 389.877 207.894 388.724C206.408 387.587 204.865 386.494 203.283 385.41Z" fill="white"/>
<path d="M225.054 410.635C226.254 411.137 227.397 411.687 228.543 412.23C229.689 412.771 230.811 413.329 231.923 413.887L235.234 415.53C235.785 415.789 236.32 416.085 236.864 416.324C237.405 416.577 237.95 416.817 238.477 417.084L237.173 416.718C237.57 416.719 238.007 416.826 238.367 417.009C238.77 417.208 239.199 417.594 239.455 418.004C239.625 418.275 239.748 418.562 239.829 418.866C239.876 419.05 239.878 419.085 239.892 419.166L239.92 419.392C239.946 419.759 239.929 419.832 239.919 420.008C239.902 420.195 239.892 420.23 239.876 420.34C239.813 420.688 239.757 420.861 239.709 421.027C239.611 421.347 239.527 421.574 239.442 421.798C239.275 422.234 239.112 422.613 238.945 422.986C238.612 423.726 238.25 424.408 237.885 425.089C237.16 426.449 236.35 427.733 235.487 428.997C234.627 430.267 233.666 431.47 232.612 432.663C231.533 433.841 230.363 434.976 228.771 436.019L229.346 435.565C229.1 435.798 228.818 436.008 228.525 436.176C228.248 436.331 228.06 436.398 227.812 436.485C227.548 436.572 227.39 436.599 227.227 436.627C227.066 436.652 226.869 436.676 226.738 436.68C226.214 436.698 225.826 436.642 225.517 436.584C224.89 436.46 224.469 436.303 224.059 436.147C223.257 435.831 222.602 435.491 221.969 435.137C220.711 434.432 219.607 433.628 218.522 432.809C217.441 431.986 216.438 431.079 215.455 430.153C214.477 429.22 213.563 428.211 212.676 427.174L213.368 422.302C213.275 422.351 213.186 422.412 213.106 422.482C213.053 422.53 213.045 422.54 213.047 422.539L213.037 422.555C213.011 422.595 213.039 422.578 213.077 422.548C213.133 422.519 213.247 422.406 213.343 422.315C213.551 422.115 213.78 421.866 214.007 421.614L215.418 420.017C216.369 418.918 217.344 417.802 218.355 416.707C219.356 415.604 220.405 414.529 221.492 413.48C222.05 412.968 222.613 412.458 223.189 411.964C223.783 411.486 224.387 411.002 225.054 410.635ZM225.054 410.635C224.878 410.984 224.719 411.327 224.563 411.672L224.117 412.719C223.814 413.409 223.526 414.108 223.243 414.811C222.65 416.194 222.062 417.585 221.429 418.947C220.805 420.319 220.154 421.674 219.445 423.024C219.088 423.699 218.737 424.381 218.321 425.062C218.114 425.406 217.904 425.751 217.65 426.125C217.513 426.32 217.398 426.495 217.201 426.733C217.116 426.84 217.019 426.957 216.856 427.118L216.746 427.227C216.716 427.257 216.674 427.298 216.583 427.371C216.429 427.493 216.266 427.608 216.1 427.71L216.792 422.837C217.653 423.617 218.564 424.345 219.482 425.058C220.394 425.779 221.351 426.436 222.294 427.081C223.236 427.723 224.216 428.301 225.137 428.797C225.594 429.042 226.052 429.257 226.406 429.386C226.574 429.451 226.741 429.493 226.72 429.481C226.713 429.48 226.633 429.455 226.416 429.465C226.362 429.468 226.24 429.474 226.156 429.49C226.069 429.508 225.987 429.525 225.795 429.581C225.617 429.638 225.508 429.69 225.296 429.803C225.067 429.926 224.849 430.091 224.667 430.279L225.243 429.824C226.019 429.358 226.927 428.538 227.796 427.66C228.686 426.786 229.529 425.783 230.383 424.773C231.231 423.756 232.041 422.684 232.832 421.614C233.225 421.079 233.595 420.529 233.945 420.008C234.12 419.749 234.285 419.489 234.419 419.271C234.483 419.168 234.541 419.065 234.564 419.044C234.576 419.039 234.575 419.039 234.547 419.209L234.525 419.409C234.518 419.538 234.508 419.566 234.528 419.888L234.553 420.08L234.61 420.347C234.683 420.631 234.798 420.896 234.96 421.146C235.2 421.543 235.614 421.911 236 422.097C236.339 422.277 236.755 422.377 237.13 422.374L235.826 422.008C235.296 421.609 234.784 421.184 234.267 420.773C233.742 420.366 233.26 419.929 232.776 419.485C232.297 419.039 231.798 418.619 231.346 418.149L229.973 416.761C229.09 415.801 228.211 414.846 227.399 413.813C226.572 412.802 225.775 411.756 225.054 410.635Z" fill="white"/>
<defs>
<linearGradient id="paint0_linear_4403_509" x1="35.0613" y1="141.079" x2="479.923" y2="397.92" gradientUnits="userSpaceOnUse">
<stop stop-color="#A853D7"/>
<stop offset="0.199" stop-color="#C6B6FF"/>
<stop offset="1" stop-color="#C76EFF"/>
</linearGradient>
</defs>
</svg>
