<svg width="384" height="311" viewBox="0 0 384 311" fill="none" xmlns="http://www.w3.org/2000/svg">
<path d="M190.435 57.5308C190.435 57.5308 189.345 56.4738 187.233 54.6048C185.139 52.7208 181.939 50.1008 177.793 46.9588C173.627 43.8448 168.46 40.2508 162.292 36.7018C156.139 33.1458 148.945 29.6728 140.882 27.0208C139.876 26.6948 138.859 26.3658 137.832 26.0338C136.797 25.7358 135.742 25.4788 134.688 25.1948C133.626 24.9418 132.583 24.5778 131.486 24.4058C130.402 24.1968 129.308 23.9848 128.205 23.7708C127.654 23.6718 127.107 23.5368 126.548 23.4658C125.989 23.3958 125.428 23.3248 124.865 23.2548C123.745 23.1058 122.616 22.9558 121.479 22.8048C120.339 22.6958 119.185 22.6688 118.031 22.5918C117.454 22.5588 116.876 22.5248 116.295 22.4918L115.424 22.4408L114.548 22.4628C105.197 22.4078 95.495 24.0978 86 27.6358C84.792 27.9938 83.643 28.5938 82.466 29.0948C81.294 29.6158 80.119 30.1368 78.932 30.6368C76.596 31.7548 74.307 33.0578 71.97 34.2538C69.699 35.6208 67.457 37.0918 65.18 38.5008C62.962 40.0388 60.772 41.6718 58.55 43.2508L57.717 43.8478L56.92 44.5088L55.326 45.8368C54.262 46.7208 53.196 47.6058 52.128 48.4928L50.524 49.8198L48.992 51.2628L45.901 54.1288L42.802 57.0008L41.325 58.4698L39.969 59.8868C38.19 61.7918 36.535 63.8288 34.969 65.9348C28.606 74.3178 24.124 84.0858 21.655 94.2518L21.175 96.1548L20.821 98.0868L20.461 100.016C20.33 100.656 20.221 101.3 20.158 101.953C19.984 103.252 19.811 104.547 19.638 105.839C19.492 107.137 19.447 108.447 19.342 109.747L19.202 111.698L19.187 113.656C19.178 114.962 19.168 116.264 19.159 117.562C19.225 118.866 19.292 120.166 19.358 121.46C19.42 122.757 19.442 124.052 19.621 125.34C20.612 135.659 22.944 145.687 25.945 155.054C28.863 164.462 32.653 173.15 36.338 181.118C38.254 185.075 40.036 188.915 41.992 192.448C42.934 194.238 43.852 195.982 44.744 197.678C45.179 198.534 45.643 199.359 46.12 200.158C46.583 200.969 47.039 201.766 47.488 202.553C48.385 204.129 49.254 205.656 50.092 207.129C50.927 208.608 51.735 210.035 52.571 211.367C54.208 214.069 55.711 216.551 57.068 218.792C59.798 223.28 62.068 226.746 63.563 229.154C65.07 231.553 65.848 232.864 65.848 232.864C65.848 232.864 64.719 231.858 62.652 229.915C61.619 228.939 60.346 227.736 58.849 226.321C57.352 224.901 55.598 223.294 53.798 221.347C51.954 219.437 49.948 217.285 47.749 214.945C47.204 214.356 46.628 213.769 46.076 213.143C45.535 212.508 44.983 211.861 44.422 211.202C43.297 209.88 42.131 208.511 40.927 207.096C38.456 204.304 36.1 201.121 33.547 197.794C30.932 194.51 28.534 190.8 25.906 186.988C24.553 185.107 23.389 183.046 22.131 180.983C21.507 179.948 20.877 178.902 20.242 177.847C19.606 176.79 18.949 175.733 18.375 174.612C17.173 172.401 16.001 170.122 14.787 167.814C13.608 165.487 12.559 163.04 11.415 160.594C7.093 150.703 3.409 139.682 1.454 127.682C1.148 126.197 0.999002 124.67 0.815002 123.143C0.632002 121.615 0.454005 120.08 0.311005 118.533C0.239005 116.975 0.167001 115.411 0.0950012 113.842L0 111.481L0.0390015 109.101C0.0800015 107.511 0.0670031 105.914 0.161003 104.312C0.291003 102.708 0.421002 101.101 0.552002 99.4888C0.608002 98.6818 0.719006 97.8778 0.851006 97.0738L1.221 94.6578L1.598 92.2348L2.116 89.8268C3.475 83.4008 5.442 76.9898 8.234 70.8968C10.996 64.7928 14.431 58.9628 18.452 53.5458C20.493 50.8588 22.659 48.2588 24.995 45.8038L26.765 43.9918L28.489 42.3098L31.997 39.1118C36.572 34.7598 41.633 30.8928 46.7 27.1328C49.344 25.3678 51.919 23.5428 54.591 21.8708C57.364 20.3218 60.087 18.7408 62.859 17.2718C65.735 15.9548 68.54 14.5638 71.421 13.3658C72.894 12.8288 74.361 12.2938 75.823 11.7608C77.294 11.2538 78.717 10.6628 80.236 10.3048C92.095 6.73582 104.355 5.74981 115.579 7.00581C126.844 8.23481 136.927 11.8108 145.474 16.0248C154.033 20.2968 161.116 25.3078 166.875 30.2158C172.644 35.1248 177.159 39.8748 180.63 43.9568C184.12 48.0248 186.515 51.4808 188.126 53.8268C188.932 55.0008 189.491 55.9428 189.876 56.5688C190.244 57.2038 190.435 57.5308 190.435 57.5308Z" fill="white"/>
<path d="M206.015 101.365C206.674 103.449 207.403 105.497 208.15 107.53C208.88 109.567 209.688 111.573 210.478 113.571C212.103 117.556 213.822 121.473 215.69 125.289C217.534 129.115 219.538 132.835 221.646 136.448C223.781 140.049 226.028 143.542 228.443 146.866C229.652 148.527 230.916 150.135 232.182 151.72C233.453 153.304 234.786 154.822 236.151 156.293C237.516 157.764 238.93 159.17 240.36 160.537C241.792 161.904 243.275 163.196 244.798 164.417C246.309 165.654 247.892 166.779 249.472 167.877C251.051 168.978 252.684 169.979 254.343 170.909C255.995 171.853 257.704 172.675 259.423 173.445C261.141 174.219 262.893 174.899 264.658 175.526L263.851 175.252L264.603 175.494L265.238 175.725L265.853 175.961L266.894 176.369L268.779 177.103C270.013 177.581 271.228 178.032 272.449 178.471L276.104 179.746C277.318 180.172 278.538 180.559 279.754 180.942C280.973 181.323 282.192 181.681 283.411 182.016C284.019 182.196 284.63 182.343 285.239 182.501C285.848 182.654 286.457 182.826 287.065 182.957C288.283 183.245 289.498 183.52 290.709 183.75C291.919 184.03 293.119 184.206 294.321 184.439L292.517 184.274L292.884 184.28L293.158 184.293L293.31 184.302L293.508 184.315L293.793 184.335L294.281 184.37L295.202 184.44L297.001 184.584L300.57 184.89L307.714 185.576C310.108 185.831 312.502 186.129 314.981 186.475C316.226 186.653 317.48 186.841 318.854 187.092C319.549 187.221 320.261 187.364 321.15 187.583C321.615 187.702 322.07 187.814 322.828 188.07L323.485 188.311L323.923 188.494L324.421 188.723C324.648 188.834 324.952 188.997 325.206 189.146L325.641 189.413C325.89 189.575 326.134 189.749 326.371 189.931C326.608 190.114 326.838 190.305 327.059 190.504C327.462 190.867 327.982 191.422 328.371 191.941C328.575 192.209 328.766 192.486 328.941 192.767L329.07 192.98L329.234 193.268C329.393 193.562 329.542 193.871 329.676 194.19C330.223 195.468 330.51 196.934 330.509 198.259L330.508 199.667L330.174 200.872L329.607 202.919L329.038 204.842C328.646 206.115 328.239 207.382 327.804 208.65C326.923 211.181 325.957 213.713 324.812 216.296C323.65 218.89 322.364 221.496 320.427 224.354C319.436 225.784 318.299 227.297 316.506 228.957C315.595 229.78 314.5 230.657 313.002 231.476C311.502 232.285 309.489 233.039 307.133 233.211L303.363 232.785C303.497 232.832 303.633 232.871 303.771 232.903L303.979 232.944L304.083 232.96C304.108 232.964 304.082 232.96 304.082 232.96C304.039 232.955 303.997 232.946 303.955 232.935L303.235 232.838L301.293 232.65L297.02 232.328L288.183 231.719C282.245 231.237 276.268 230.729 270.271 230.071C267.274 229.714 264.274 229.338 261.265 228.909C258.256 228.472 255.238 228.035 252.219 227.471C249.197 226.905 246.166 226.282 243.118 225.559C241.596 225.203 240.064 224.803 238.53 224.388L236.226 223.701L233.908 222.943L235.197 223.189C234.771 223.126 234.301 223.044 234.058 222.984C233.755 222.918 233.463 222.849 233.219 222.781C232.69 222.647 232.216 222.502 231.737 222.357C230.792 222.065 229.895 221.748 229.01 221.419C227.251 220.754 225.572 220.009 223.927 219.216C222.287 218.41 220.709 217.522 219.159 216.604C217.615 215.676 216.114 214.694 214.653 213.668C213.197 212.634 211.776 211.563 210.416 210.423C209.053 209.288 207.743 208.101 206.462 206.894L204.59 205.037L202.79 203.121C201.636 201.806 200.49 200.491 199.438 199.106C198.349 197.753 197.363 196.326 196.36 194.926C195.426 193.472 194.474 192.042 193.634 190.546C192.749 189.081 191.966 187.562 191.181 186.055C190.447 184.519 189.713 182.992 189.062 181.433C188.408 179.875 187.771 178.32 187.241 176.723C186.662 175.15 186.163 173.552 185.705 171.949C185.211 170.359 184.856 168.725 184.459 167.12C184.09 165.504 183.815 163.865 183.512 162.249L185.858 166.587C186.707 167.994 187.434 169.441 188.322 170.807C189.183 172.184 190.002 173.569 190.924 174.892C191.797 176.24 192.75 177.531 193.674 178.827C194.606 180.118 195.605 181.356 196.591 182.588C197.612 183.795 198.593 185.02 199.669 186.16C200.696 187.339 201.828 188.421 202.902 189.535C204.029 190.602 205.125 191.687 206.299 192.682C207.44 193.711 208.65 194.656 209.85 195.592L211.665 196.971L213.52 198.279C214.779 199.116 216.045 199.925 217.341 200.679C218.642 201.423 219.944 202.147 221.266 202.82C222.591 203.486 223.932 204.105 225.287 204.67C226.645 205.224 228.009 205.747 229.383 206.188C230.748 206.646 232.119 207.058 233.468 207.38C234.14 207.535 234.808 207.681 235.443 207.789C235.755 207.84 236.071 207.894 236.34 207.922C236.493 207.945 236.603 207.951 236.701 207.955C236.858 207.975 236.792 207.942 236.77 207.935L236.749 207.928L238.06 208.181L240.025 208.56L242.033 208.896C243.385 209.117 244.744 209.327 246.127 209.503C248.888 209.865 251.697 210.15 254.529 210.386C257.366 210.606 260.217 210.846 263.087 211.013C265.955 211.191 268.843 211.321 271.735 211.433C277.518 211.706 283.339 211.888 289.203 212.021L298.068 212.31L302.642 212.498L303.844 212.564L305.117 212.652C305.592 212.693 306.038 212.731 306.6 212.796L307.569 212.932L307.705 212.953L307.944 213L308.423 213.103C308.741 213.175 309.058 213.256 309.37 213.344L305.601 212.918C304.467 212.985 303.637 213.336 303.211 213.561C302.786 213.786 302.658 213.906 302.658 213.906L302.902 213.609C303.047 213.425 303.229 213.172 303.424 212.871C304.223 211.66 305.124 209.859 305.949 207.98C306.779 206.081 307.554 204.028 308.27 201.929C308.633 200.88 308.985 199.818 309.318 198.751L309.802 197.155L310.227 195.664L309.892 198.277C309.88 199.566 310.158 200.998 310.695 202.24C310.827 202.552 310.973 202.85 311.13 203.136L311.407 203.615C311.571 203.883 311.75 204.145 311.942 204.399C312.306 204.89 312.804 205.415 313.182 205.753C313.373 205.93 313.574 206.099 313.782 206.26C313.99 206.42 314.205 206.572 314.425 206.712L314.764 206.924C314.954 207.037 315.196 207.163 315.357 207.241L315.655 207.38L315.891 207.479L316.135 207.569C316.34 207.634 316.228 207.596 316.125 207.571C315.877 207.507 315.441 207.414 314.987 207.322C314.059 207.135 313.001 206.954 311.929 206.782C309.774 206.436 307.521 206.136 305.265 205.828L298.444 204.936L295.022 204.525L293.325 204.33L292.496 204.238L292.11 204.197L291.957 204.18C291.953 204.179 291.903 204.174 291.936 204.176L291.979 204.178L292.199 204.188L292.511 204.192L290.707 204.027C289.226 203.696 287.721 203.408 286.269 203.022C284.803 202.656 283.365 202.241 281.933 201.815C281.212 201.612 280.511 201.374 279.802 201.151C279.096 200.922 278.385 200.704 277.69 200.457C276.289 199.983 274.902 199.486 273.529 198.97C272.158 198.45 270.79 197.925 269.444 197.366C268.09 196.824 266.762 196.229 265.442 195.635C264.124 195.038 262.81 194.426 261.531 193.809L259.646 192.896L258.801 192.483L258.469 192.319L258.428 192.299L258.492 192.323L258.623 192.366C258.712 192.392 258.802 192.414 258.893 192.43L258.086 192.156C255.853 191.151 253.64 190.103 251.522 188.889C249.408 187.67 247.336 186.388 245.365 184.98C241.401 182.195 237.723 179.068 234.438 175.633C231.137 172.216 228.131 168.586 225.51 164.743C222.874 160.912 220.512 156.955 218.487 152.865C217.471 150.823 216.517 148.762 215.62 146.686C214.722 144.61 213.931 142.496 213.167 140.385C212.416 138.267 211.688 136.152 211.07 134.004C210.443 131.86 209.867 129.709 209.339 127.552C208.313 123.228 207.487 118.88 206.915 114.509C206.614 112.327 206.407 110.134 206.232 107.946C206.085 105.749 205.981 103.555 206.015 101.365Z" fill="white"/>
<path d="M294.267 223.142C294.857 224.013 295.362 224.942 295.833 225.891C296.28 226.845 296.714 227.823 297.076 228.829C297.433 229.835 297.776 230.864 298.041 231.919C298.303 232.973 298.531 234.05 298.703 235.151C298.865 236.252 298.963 237.375 299.009 238.519C299.062 239.665 299.027 240.831 298.915 242.007C298.845 242.596 298.783 243.191 298.692 243.786L298.347 245.583C298.2 246.182 298.02 246.775 297.843 247.376C297.655 247.972 297.413 248.559 297.19 249.155C296.698 250.327 296.148 251.51 295.456 252.624C295.122 253.19 294.763 253.743 294.357 254.262C293.953 254.781 293.579 255.345 293.128 255.825L291.784 257.302L290.327 258.653C289.844 259.125 289.306 259.483 288.78 259.882C288.249 260.264 287.72 260.687 287.167 261.006L285.503 262.021C284.943 262.352 284.375 262.611 283.804 262.907C282.66 263.523 281.505 263.946 280.333 264.403C279.162 264.856 278.005 265.17 276.82 265.531C275.654 265.826 274.489 266.081 273.311 266.344L273.151 266.379L271.833 266.382L267.823 266.389L263.947 266.284C261.372 266.177 258.806 266.024 256.248 265.794C253.687 265.58 251.136 265.29 248.588 264.952C246.039 264.62 243.498 264.215 240.963 263.762C238.428 263.307 235.9 262.786 233.38 262.217C230.861 261.624 228.349 261.01 225.853 260.287C224.6 259.953 223.358 259.572 222.116 259.176C220.874 258.78 219.631 258.413 218.4 257.966L214.709 256.648L211.049 255.2C208.623 254.195 206.214 253.12 203.844 251.939C202.657 251.345 201.482 250.742 200.31 250.122C199.143 249.476 197.993 248.799 196.84 248.139C195.682 247.494 194.57 246.709 193.443 245.999C192.881 245.637 192.32 245.277 191.771 244.893L190.139 243.693C189.06 242.878 187.962 242.134 186.922 241.246C185.88 240.373 184.853 239.499 183.842 238.602C182.858 237.651 181.862 236.73 180.915 235.762C179.965 234.794 179.087 233.719 178.187 232.711C177.264 231.733 176.499 230.557 175.691 229.467L174.508 227.816C174.147 227.23 173.811 226.628 173.467 226.041C172.795 224.853 172.077 223.729 171.575 222.442L170.769 220.587L170.376 219.669L170.076 218.696C169.7 217.395 169.271 216.154 169.03 214.848C168.811 213.531 168.643 212.227 168.516 210.95C169.412 211.929 170.266 212.879 171.071 213.816C171.446 214.298 171.97 214.697 172.398 215.135L173.71 216.413L174.36 217.036L175.063 217.618L176.448 218.762C177.333 219.533 178.313 220.219 179.271 220.894C179.746 221.236 180.227 221.563 180.684 221.908L182.172 222.838C183.161 223.451 184.11 224.07 185.144 224.615C186.168 225.165 187.129 225.757 188.172 226.258C189.229 226.744 190.235 227.279 191.255 227.783C193.386 228.695 195.437 229.664 197.6 230.487L199.196 231.125L200.829 231.712C201.92 232.1 202.974 232.524 204.079 232.886C205.178 233.256 206.279 233.611 207.363 233.996L210.685 235.034C211.777 235.405 212.912 235.702 214.028 236.031C215.143 236.363 216.249 236.707 217.387 236.993L220.764 237.926L224.166 238.812C226.449 239.368 228.715 239.973 231.02 240.492C233.308 241.051 235.621 241.553 237.924 242.087L241.398 242.849L244.883 243.585L251.881 245.018L258.909 246.4L265.955 247.724L269.471 248.363L272.866 248.961L271.387 248.999L273.783 248.942C274.536 248.851 275.351 248.851 276.089 248.74C276.821 248.624 277.599 248.555 278.291 248.393C278.643 248.316 279.025 248.269 279.364 248.174L280.386 247.888C280.747 247.81 281.04 247.662 281.372 247.549C281.693 247.427 282.039 247.319 282.337 247.171L283.287 246.758L284.183 246.261C284.502 246.108 284.748 245.883 285.047 245.698C285.35 245.515 285.612 245.292 285.883 245.067C286.463 244.649 286.975 244.138 287.496 243.603C287.736 243.32 288.006 243.049 288.242 242.747C288.47 242.438 288.701 242.126 288.952 241.813L289.625 240.803L290.245 239.719C291.017 238.225 291.741 236.571 292.264 234.795C292.552 233.91 292.795 232.995 293.01 232.061C293.219 231.126 293.43 230.168 293.583 229.195C293.738 228.221 293.895 227.228 294 226.222C294.113 225.211 294.214 224.188 294.267 223.142Z" fill="white"/>
<path d="M271.765 260.895C272.622 262.359 273.196 263.96 273.686 265.614C274.135 267.272 274.446 269.003 274.551 270.794C274.622 271.691 274.62 272.601 274.563 273.522C274.518 274.445 274.413 275.38 274.252 276.325C274.08 277.264 273.832 278.207 273.539 279.154L273.038 280.57C272.841 281.035 272.638 281.504 272.416 281.966C271.943 282.873 271.437 283.789 270.829 284.65C270.541 285.094 270.226 285.519 269.887 285.927C269.548 286.334 269.232 286.78 268.849 287.146L267.719 288.292L266.505 289.341C266.096 289.699 265.661 289.991 265.228 290.303C264.792 290.602 264.357 290.94 263.905 291.195C263.005 291.74 262.08 292.265 261.142 292.689C260.201 293.17 259.253 293.51 258.294 293.871C257.332 294.238 256.387 294.481 255.414 294.767C254.458 295.005 253.506 295.203 252.54 295.411L254.063 295.142C253.715 295.238 253.361 295.32 253.003 295.386L252.425 295.487L251.796 295.599L250.779 295.771C250.148 295.867 249.508 295.971 248.904 296.044C247.675 296.197 246.477 296.322 245.283 296.419C242.893 296.599 240.524 296.689 238.164 296.664C235.801 296.652 233.451 296.534 231.104 296.345C228.76 296.151 226.428 295.851 224.105 295.493L220.634 294.879L217.19 294.133C214.904 293.586 212.633 292.975 210.39 292.272C208.151 291.559 205.925 290.799 203.744 289.919C201.553 289.072 199.409 288.098 197.291 287.088C195.18 286.055 193.101 284.966 191.083 283.766C190.062 283.191 189.063 282.578 188.084 281.929C187.105 281.283 186.103 280.686 185.158 279.989C183.248 278.632 181.364 277.255 179.581 275.742C177.753 274.301 176.07 272.667 174.378 271.088C172.75 269.42 171.115 267.786 169.638 265.995C168.137 264.232 166.708 262.419 165.394 260.518C164.037 258.665 162.85 256.67 161.702 254.684C161.119 253.701 160.61 252.656 160.113 251.612C159.609 250.576 159.142 249.516 158.703 248.446C160.848 249.419 162.793 250.522 164.791 251.528C166.791 252.53 168.69 253.589 170.653 254.534C171.639 255.001 172.553 255.54 173.524 256.003C174.499 256.459 175.463 256.918 176.406 257.393C177.348 257.871 178.301 258.322 179.263 258.752L182.093 260.091C184.014 260.914 185.861 261.813 187.767 262.587C188.721 262.974 189.635 263.416 190.588 263.786L193.415 264.931C195.311 265.657 197.178 266.415 199.076 267.086L201.906 268.112C202.86 268.425 203.808 268.747 204.748 269.084C206.656 269.688 208.536 270.349 210.455 270.896C211.407 271.189 212.353 271.496 213.318 271.747C214.279 272.009 215.223 272.32 216.189 272.562L219.072 273.334C220.039 273.569 221.007 273.799 221.968 274.057C223.906 274.51 225.844 274.96 227.791 275.375L230.718 275.978L233.654 276.536C235.616 276.869 237.58 277.231 239.547 277.512C241.514 277.818 243.485 278.082 245.434 278.302C246.409 278.428 247.381 278.528 248.321 278.608L249.698 278.735L250.303 278.785L250.484 278.814C250.775 278.796 250.012 278.896 249.652 279.044L251.175 278.775L252.973 278.865C253.537 278.839 254.155 278.89 254.708 278.848C255.266 278.814 255.849 278.799 256.377 278.724C256.941 278.686 257.45 278.576 257.984 278.486C258.265 278.457 258.495 278.37 258.757 278.313C259.011 278.249 259.286 278.201 259.52 278.106L260.278 277.871L261.004 277.571C261.262 277.48 261.48 277.346 261.729 277.235C261.98 277.125 262.221 276.997 262.448 276.848C262.933 276.582 263.377 276.245 263.84 275.896C264.053 275.705 264.284 275.521 264.521 275.333L265.183 274.704C265.61 274.259 266.037 273.783 266.428 273.258C266.841 272.743 267.239 272.191 267.601 271.599C267.971 271.011 268.314 270.387 268.654 269.741C268.999 269.096 269.298 268.418 269.591 267.72C269.899 267.024 270.168 266.302 270.424 265.564C270.686 264.825 270.928 264.066 271.15 263.291C271.369 262.508 271.589 261.716 271.765 260.895Z" fill="white"/>
<path d="M206.272 280.493C206.272 280.493 206.491 280.628 206.843 280.925C207.183 281.226 207.722 281.665 208.285 282.295C209.418 283.553 210.883 285.502 211.882 288.357C212.358 289.786 212.788 291.435 212.829 293.345C212.885 295.241 212.619 297.406 211.745 299.624C210.891 301.846 209.305 304.017 207.357 305.657C206.388 306.528 205.333 307.152 204.248 307.784C203.184 308.279 202.047 308.84 200.976 309.122L199.335 309.582C198.804 309.697 198.274 309.771 197.744 309.857C196.67 310.061 195.659 310.086 194.654 310.12C193.632 310.178 192.687 310.09 191.743 310.011C191.273 309.97 190.802 309.924 190.347 309.865C189.901 309.794 189.459 309.7 189.023 309.616C187.259 309.306 185.672 308.772 184.18 308.239C182.704 307.682 181.383 306.987 180.169 306.369C178.988 305.667 177.933 304.978 177.023 304.321C176.113 303.667 175.367 302.991 174.756 302.431C174.143 301.88 173.693 301.363 173.378 301.048C173.066 300.717 172.91 300.516 172.91 300.516C172.91 300.516 173.152 300.419 173.589 300.286C174.022 300.167 174.67 299.937 175.454 299.754C176.245 299.541 177.18 299.375 178.237 299.141C179.292 298.913 180.455 298.71 181.693 298.536C182.923 298.311 184.237 298.131 185.571 297.957C186.898 297.742 188.278 297.621 189.61 297.399C189.947 297.358 190.285 297.306 190.623 297.277C190.947 297.22 191.272 297.164 191.601 297.106C192.249 296.998 192.919 296.932 193.511 296.782C194.125 296.667 194.748 296.568 195.282 296.412C195.558 296.343 195.842 296.278 196.117 296.224C196.361 296.14 196.604 296.058 196.851 295.987L197.226 295.894C197.34 295.855 197.436 295.804 197.542 295.763C197.748 295.673 197.973 295.616 198.186 295.545C198.519 295.348 198.941 295.243 199.217 295.058C199.84 294.728 200.41 294.434 200.974 293.897C201.536 293.369 202.107 292.625 202.619 291.726C203.138 290.835 203.575 289.784 203.948 288.744C204.343 287.7 204.638 286.642 204.923 285.666C205.206 284.687 205.422 283.787 205.629 283.018C206.039 281.41 206.272 280.493 206.272 280.493Z" fill="white"/>
<path d="M317.999 197.432L322.162 193.337L326.249 189.203L330.229 184.977L334.102 180.672C339.192 174.881 343.986 168.881 348.322 162.622C350.489 159.495 352.563 156.317 354.458 153.053C356.383 149.804 358.149 146.486 359.775 143.12C361.42 139.762 362.824 136.311 364.098 132.841C365.382 129.374 366.471 125.855 367.322 122.299C369.027 115.191 369.943 107.971 369.863 100.802C369.765 93.6367 368.799 86.5317 366.877 79.6957C365.935 76.2747 364.738 72.9287 363.365 69.6697C361.992 66.4107 360.427 63.2347 358.656 60.2077C357.773 58.6937 356.843 57.2157 355.872 55.7937C354.917 54.4017 353.843 52.9507 352.923 51.8817C351.815 50.6467 350.345 48.8647 349.232 47.7177L347.457 45.8107L345.568 43.8998C343.016 41.3968 340.38 39.0117 337.62 36.8247C334.852 34.6497 331.986 32.6458 329.023 30.8488C323.127 27.2038 316.808 24.4347 310.239 22.6397C303.667 20.8587 296.86 19.9717 289.975 20.0257C283.091 20.0767 276.15 21.0247 269.313 22.7027C262.468 24.3487 255.717 26.7207 249.212 29.6817C245.959 31.1577 242.768 32.7877 239.678 34.5407C238.132 35.4127 236.607 36.3098 235.139 37.2368C234.403 37.6978 233.688 38.1678 233 38.6328L232.014 39.3178L231.278 39.8627L227.265 43.3828C225.782 44.6678 224.421 45.9287 222.792 47.2417L218.068 51.1437C216.494 52.4597 214.911 53.6348 213.332 54.8868C211.76 56.1308 210.169 57.3488 208.538 58.5208C206.912 59.6998 205.32 60.9117 203.658 62.0517C202.005 63.2027 200.377 64.3708 198.679 65.4898C197.83 66.0538 197.013 66.6217 196.139 67.1817C195.257 67.7497 194.453 68.2817 193.451 68.9027L195.303 67.4128L194.322 68.3698L193.414 69.2268L191.603 70.8797C190.392 71.9627 189.166 73.0187 187.919 74.0527C185.431 76.1257 182.849 78.1077 180.144 79.9847C177.436 81.8617 174.611 83.6458 171.603 85.2878C170.091 86.1028 168.536 86.8838 166.921 87.6158C165.295 88.3388 163.609 89.0118 161.844 89.6108L162.887 89.1767L162.265 89.4527L161.963 89.5768L161.812 89.6328L161.257 89.8337L160.493 90.0957L159.234 90.5328C158.439 90.8188 157.676 91.1197 156.917 91.4407C155.405 92.0877 153.936 92.8297 152.497 93.6437C151.781 94.0567 151.074 94.4887 150.377 94.9397C149.682 95.3957 149.001 95.8738 148.326 96.3658C147.661 96.8708 146.997 97.3807 146.356 97.9227C145.714 98.4647 145.074 99.0128 144.465 99.5988C141.991 101.903 139.762 104.537 137.769 107.397C136.779 108.835 135.842 110.322 134.962 111.865C134.5 112.62 134.111 113.43 133.68 114.21C133.267 115.004 132.888 115.822 132.487 116.627L131.1 119.408L129.246 120.444L125.636 122.462C124.576 123.067 123.531 123.688 122.508 124.328C120.461 125.606 118.49 126.953 116.663 128.367C114.842 129.78 113.155 131.263 111.754 132.749C110.357 134.227 109.289 135.756 108.788 136.922C108.537 137.503 108.397 137.973 108.361 138.33C108.323 138.694 108.328 138.989 108.439 139.394C108.55 139.793 108.799 140.304 109.232 140.879C109.661 141.454 110.26 142.072 110.957 142.699C111.692 143.314 112.492 143.939 113.407 144.523C114.304 145.116 115.286 145.676 116.301 146.218C117.328 146.752 118.391 147.265 119.488 147.754C120.586 148.241 121.717 148.698 122.86 149.148L121.591 148.861C121.706 148.887 122.034 148.935 122.35 148.96C122.662 148.995 123.01 149.012 123.349 149.036C124.041 149.072 124.755 149.087 125.477 149.086C126.922 149.081 128.402 149.006 129.882 148.873C131.365 148.753 132.85 148.527 134.336 148.29C135.817 148.019 137.3 147.714 138.771 147.335C141.717 146.591 144.614 145.598 147.466 144.445L149.591 143.537L151.689 142.55C153.066 141.843 154.452 141.139 155.79 140.342C156.471 139.963 157.141 139.564 157.795 139.137C158.451 138.713 159.129 138.319 159.771 137.87C161.062 136.981 162.369 136.105 163.617 135.139C164.903 134.222 166.092 133.176 167.335 132.189C168.508 131.122 169.749 130.118 170.877 128.988L172.604 127.325L174.28 125.602C175.418 124.467 176.466 123.246 177.541 122.043C178.625 120.846 179.604 119.559 180.647 118.316L183.613 114.448L183.829 114.162L186.362 111.704C187.218 110.889 188.084 110.083 188.958 109.287C190.714 107.702 192.522 106.169 194.391 104.706C196.267 103.253 198.194 101.843 200.324 100.711C201.391 100.166 202.525 99.6388 203.809 99.5768C204.438 99.5568 205.163 99.7557 205.554 100.286C205.951 100.791 206.059 101.406 206.101 101.982C205.963 101.42 205.74 100.851 205.333 100.495C204.935 100.123 204.383 100.085 203.87 100.182C202.824 100.423 201.856 101.055 200.946 101.713C199.129 103.073 197.491 104.704 195.911 106.375C194.333 108.053 192.832 109.812 191.357 111.589C190.618 112.477 189.888 113.372 189.169 114.277L187.027 117.023L187.243 116.737C186.406 118.201 185.601 119.691 184.727 121.142C183.814 122.567 182.96 124.039 181.988 125.435C181.025 126.837 180.084 128.261 179.037 129.614L177.493 131.666L175.861 133.653C174.792 134.999 173.59 136.236 172.452 137.534C171.236 138.759 170.07 140.043 168.784 141.21C167.537 142.419 166.228 143.568 164.893 144.692C164.232 145.262 163.528 145.781 162.846 146.329C162.165 146.879 161.463 147.403 160.745 147.909C159.337 148.957 157.862 149.917 156.382 150.879L154.114 152.251C153.349 152.696 152.568 153.112 151.792 153.544C148.667 155.227 145.39 156.656 142.013 157.864C140.325 158.47 138.604 158.996 136.865 159.481C135.117 159.934 133.357 160.367 131.559 160.685C129.764 161.012 127.95 161.29 126.09 161.441C125.16 161.518 124.219 161.576 123.258 161.604C122.769 161.612 122.29 161.625 121.777 161.616C121.266 161.611 120.769 161.597 120.062 161.537L119.61 161.499L118.792 161.251C117.432 160.838 116.069 160.409 114.704 159.929C113.338 159.448 111.968 158.918 110.595 158.336C109.221 157.739 107.844 157.096 106.463 156.341C105.083 155.604 103.698 154.728 102.324 153.745C100.949 152.726 99.5903 151.547 98.3053 150.104C97.0273 148.665 95.8213 146.925 94.9403 144.868C94.0543 142.823 93.5483 140.472 93.5293 138.19C93.4943 135.896 93.9393 133.744 94.5713 131.836C95.8753 128.01 97.8603 125.102 99.8933 122.568C101.946 120.041 104.149 117.905 106.404 115.946C108.66 113.99 110.974 112.219 113.33 110.56C114.507 109.73 115.697 108.932 116.894 108.156L120.113 106.125L116.873 109.942C117.314 108.901 117.734 107.853 118.199 106.817C118.687 105.789 119.13 104.744 119.665 103.731C120.672 101.68 121.826 99.6847 123.05 97.7217C125.523 93.8097 128.399 90.0717 131.716 86.6867C132.535 85.8317 133.399 85.0137 134.273 84.2077C135.148 83.4007 136.057 82.6287 136.978 81.8677C137.91 81.1177 138.858 80.3887 139.831 79.6867C140.807 78.9887 141.803 78.3168 142.818 77.6708C143.838 77.0318 144.874 76.4157 145.937 75.8447C146.997 75.2677 148.077 74.7267 149.17 74.2157C150.264 73.7087 151.375 73.2297 152.476 72.7937L154.074 72.1808L154.742 71.9287L154.9 71.8648L154.927 71.8537L154.8 71.9027C154.708 71.9407 154.616 71.9827 154.528 72.0277L155.572 71.5928C156.632 71.1898 157.717 70.7177 158.813 70.1907C159.911 69.6477 161.016 69.0488 162.123 68.4078C164.335 67.1058 166.541 65.6207 168.709 64.0137C170.87 62.3947 173.012 60.6817 175.098 58.8837C176.14 57.9857 177.167 57.0658 178.172 56.1328L179.654 54.7278L180.367 54.0277L180.983 53.4048L181.716 52.6637L182.836 51.9147L185.019 50.4547C185.769 49.9547 186.534 49.4008 187.291 48.8778C188.813 47.8338 190.316 46.7107 191.826 45.6167C193.344 44.5357 194.815 43.3667 196.309 42.2417C197.807 41.1187 199.274 39.9527 200.742 38.7867C202.194 37.6197 203.721 36.4727 205.114 35.2897L209.341 31.7578C210.734 30.6358 212.214 29.2537 213.654 27.9897L215.828 26.0558L216.915 25.0898L217.458 24.6068L217.772 24.3297L218.13 24.0237L218.376 23.8237C219.021 23.3057 219.465 22.9847 219.963 22.6177L221.359 21.6337C222.274 21.0067 223.176 20.4057 224.08 19.8317C225.887 18.6797 227.694 17.5907 229.526 16.5577C233.196 14.5047 236.932 12.6278 240.755 10.9218C248.39 7.50576 256.357 4.74975 264.609 2.81775C272.862 0.907754 281.422 -0.0852582 290.055 0.00574182C298.683 0.0887418 307.394 1.37574 315.71 3.96174C324.033 6.51974 331.95 10.3118 339.103 15.0558C342.672 17.4398 346.063 20.0427 349.276 22.8077C352.481 25.5837 355.479 28.5427 358.333 31.6017L360.436 33.9237L362.52 36.3698L363.549 37.5978L364.444 38.7457L366.298 41.1257C367.79 43.0937 368.914 44.8467 370.057 46.7157C371.172 48.5637 372.206 50.4318 373.173 52.3268C375.111 56.1138 376.769 60.0118 378.187 63.9908C379.565 67.9828 380.708 72.0507 381.55 76.1787C383.276 84.4237 383.863 92.8957 383.267 101.235C382.694 109.576 380.994 117.774 378.315 125.542C375.674 133.328 372.077 140.681 367.855 147.541C363.655 154.418 358.781 160.785 353.538 166.728C348.253 172.642 342.598 178.148 336.642 183.25C335.157 184.529 333.633 185.763 332.121 187.003L327.498 190.61L322.794 194.099L317.999 197.432Z" fill="white"/>
<path d="M57.6406 241.342C59.0076 238.806 60.4616 236.334 61.9186 233.863C63.3806 231.397 64.8806 228.96 66.3986 226.536C69.4396 221.69 72.5606 216.904 75.7626 212.179L77.0046 210.346L79.2666 211.328C81.5346 212.314 83.7246 213.366 85.9386 214.427C88.1426 215.501 90.3236 216.625 92.5046 217.797C94.6766 218.998 96.8226 220.225 99.0076 221.708C99.5536 222.092 100.098 222.483 100.673 222.96C100.951 223.178 101.261 223.467 101.563 223.748L102.051 224.257C102.232 224.464 102.433 224.73 102.61 224.974C102.711 225.12 102.849 225.371 102.951 225.575L103.104 225.903L103.14 225.985L103.158 226.027L103.239 226.277L103.252 226.332C103.247 226.311 103.346 226.719 103.378 226.991C103.398 227.134 103.414 227.299 103.422 227.423L103.428 227.582C103.448 228.026 103.444 228.365 103.437 228.723C103.425 229.425 103.38 230.079 103.333 230.743C103.097 233.363 102.65 235.913 101.994 238.452C101.317 240.981 100.413 243.485 99.1676 245.901C98.5496 247.107 97.8036 248.276 96.9796 249.402C96.1636 250.532 95.1896 251.592 94.1236 252.558C93.0576 253.53 91.8206 254.349 90.5316 255.043C89.2326 255.739 87.8236 256.2 86.4106 256.531L83.8666 255.927C84.1796 256.222 84.6616 256.48 85.1466 256.562C85.2666 256.584 85.3856 256.597 85.5006 256.602L85.6696 256.603L85.7666 256.599H85.7786C85.7946 256.597 85.8106 256.595 85.8256 256.59C85.8516 256.579 85.7186 256.6 85.6726 256.604L85.1846 256.669L84.0906 256.822C83.3466 256.916 82.5956 257.01 81.8376 257.062C80.3236 257.176 78.7936 257.208 77.2606 257.133C76.4936 257.098 75.7276 257.016 74.9636 256.925C74.1986 256.819 73.4366 256.692 72.6796 256.529C71.9226 256.36 71.1716 256.168 70.4326 255.919C69.6936 255.681 68.9626 255.406 68.2546 255.082C67.5386 254.778 66.8556 254.394 66.1836 254.008C65.5226 253.593 64.8766 253.167 64.2726 252.681C63.9586 252.457 63.6766 252.189 63.3916 251.93C63.1066 251.67 62.8186 251.419 62.5636 251.13C62.3026 250.849 62.0366 250.575 61.7876 250.289L61.0876 249.391C60.6466 248.778 60.2326 248.148 59.8716 247.497C59.5116 246.844 59.1696 246.19 58.8956 245.506C58.5866 244.84 58.3926 244.129 58.1626 243.443C57.9416 242.753 57.8036 242.038 57.6406 241.342ZM57.6406 241.342C58.0046 241.967 58.3176 242.606 58.6886 243.209C59.0746 243.806 59.4306 244.41 59.8666 244.96C60.2576 245.536 60.7056 246.065 61.1586 246.581C61.6126 247.094 62.1026 247.57 62.6046 248.019L63.3726 248.669L64.1776 249.261C64.7166 249.646 65.2846 249.984 65.8616 250.292C66.4326 250.609 67.0336 250.868 67.6326 251.116C68.2466 251.336 68.8546 251.554 69.4836 251.717C70.1056 251.895 70.7416 252.028 71.3826 252.13C72.0216 252.24 72.6706 252.305 73.3176 252.366C73.9666 252.418 74.6206 252.437 75.2746 252.442C75.9306 252.436 76.5856 252.406 77.2426 252.368C78.5556 252.283 79.8686 252.109 81.1766 251.859C81.8306 251.738 82.4846 251.604 83.1416 251.455L84.1456 251.22L84.7066 251.09C84.8356 251.065 84.8766 251.049 85.0796 251.017L85.3916 250.977L85.4706 250.969L85.5846 250.965L85.7696 250.968C85.8956 250.975 86.0256 250.989 86.1566 251.012C86.6856 251.1 87.2126 251.363 87.5696 251.662L85.0256 251.058C85.9416 250.728 86.8266 250.366 87.6336 249.854C88.4326 249.332 89.2006 248.757 89.8736 248.037C90.5456 247.321 91.2036 246.572 91.7546 245.699C92.3146 244.84 92.8336 243.932 93.2716 242.958C94.1906 241.038 94.8766 238.934 95.3956 236.771C95.9326 234.616 96.2956 232.372 96.4766 230.165C96.5216 229.62 96.5646 229.066 96.5776 228.558C96.5866 228.31 96.5886 228.042 96.5826 227.882L96.5816 227.814C96.5836 227.863 96.5916 227.953 96.6056 228.02C96.6216 228.141 96.7186 228.397 96.6706 228.229L96.6586 228.173L96.7466 228.444C96.7596 228.487 96.7756 228.529 96.7946 228.57C96.8226 228.641 96.9026 228.752 96.9176 228.773C96.9066 228.779 96.9316 228.798 96.9166 228.775C96.8676 228.728 96.8206 228.679 96.7766 228.628C96.6326 228.5 96.5076 228.365 96.3086 228.209C95.9546 227.907 95.5206 227.583 95.0786 227.267C93.2936 225.972 91.2686 224.72 89.2396 223.511C87.2146 222.278 85.1356 221.093 83.0546 219.906C80.9826 218.708 78.8606 217.551 76.7856 216.386L80.2896 215.535C76.6966 219.972 73.0226 224.348 69.2686 228.664C67.3896 230.82 65.4916 232.963 63.5566 235.078C61.6136 237.189 59.6706 239.298 57.6406 241.342Z" fill="white"/>
<path d="M111.661 234.311C114.173 234.893 116.628 235.709 119.044 236.657C121.466 237.597 123.825 238.73 126.116 240.085C128.386 241.471 130.618 243.056 132.512 245.312C132.987 245.871 133.431 246.49 133.83 247.157C134.017 247.506 134.214 247.845 134.384 248.212C134.539 248.592 134.701 248.968 134.838 249.362C134.949 249.772 135.067 250.181 135.156 250.603C135.214 251.037 135.277 251.473 135.306 251.914C135.3 252.358 135.3 252.809 135.263 253.253C135.192 253.691 135.112 254.131 135.023 254.568L134.445 255.603C134.599 255.456 134.763 255.196 134.821 255.065L134.806 255.116L134.752 255.272L134.606 255.69L134.293 256.586L133.632 258.407C133.174 259.621 132.67 260.823 132.141 262.02C131.085 264.417 129.854 266.761 128.412 269.041C127.689 270.182 126.904 271.297 126.033 272.377C125.158 273.455 124.206 274.504 123.145 275.493C122.61 275.987 122.047 276.461 121.443 276.906C120.835 277.346 120.215 277.783 119.529 278.159C118.866 278.555 118.139 278.89 117.396 279.191C116.648 279.494 115.856 279.716 115.052 279.908L116.802 278.956C116.463 279.291 115.965 279.623 115.404 279.806C115.126 279.898 114.838 279.954 114.566 279.978C114.429 279.99 114.297 279.993 114.17 279.99L113.934 279.977L113.611 279.931L113.29 279.871L113.123 279.83C112.909 279.777 112.702 279.719 112.556 279.671L111.639 279.369C111.071 279.166 110.518 278.962 109.978 278.751C108.896 278.33 107.839 277.892 106.788 277.437C104.689 276.525 102.64 275.51 100.602 274.425C98.566 273.328 96.575 272.112 94.604 270.662C93.617 269.921 92.65 269.106 91.692 268.055C91.216 267.536 90.736 266.905 90.298 266.146C89.877 265.325 89.443 264.272 89.531 262.873L89.524 263.082C89.538 262.737 89.613 262.296 89.69 262.039L89.845 261.603C89.956 261.302 90.038 261.159 90.137 260.93C90.325 260.539 90.509 260.176 90.696 259.836C91.068 259.142 91.446 258.495 91.827 257.846C92.584 256.551 93.39 255.309 94.195 254.07C95.81 251.595 97.498 249.184 99.27 246.83C101.031 244.47 102.882 242.17 104.852 239.961C105.853 238.869 106.875 237.794 107.96 236.775C108.506 236.268 109.077 235.785 109.682 235.34C110.276 234.902 110.925 234.451 111.661 234.311ZM111.661 234.311C111.015 234.663 110.555 235.225 110.103 235.78C109.65 236.335 109.257 236.943 108.85 237.534C108.047 238.728 107.309 239.972 106.596 241.228C105.143 243.724 103.782 246.278 102.425 248.828C101.081 251.385 99.758 253.953 98.476 256.524C97.834 257.807 97.219 259.103 96.613 260.378C96.317 261.015 96.021 261.657 95.764 262.274C95.629 262.587 95.514 262.886 95.412 263.163C95.379 263.273 95.304 263.459 95.304 263.504C95.3 263.532 95.295 263.56 95.287 263.586C95.32 263.506 95.373 263.245 95.353 263.079L95.346 263.288C95.391 263.009 95.355 263.019 95.454 263.168C95.602 263.348 95.798 263.596 96.097 263.867C96.671 264.412 97.448 264.974 98.255 265.522C99.903 266.617 101.767 267.59 103.651 268.535C105.544 269.477 107.505 270.334 109.47 271.164C110.453 271.577 111.443 271.976 112.426 272.346L113.879 272.869L114.54 273.079L114.771 273.145C114.781 273.148 114.811 273.157 114.805 273.156C114.767 273.146 114.727 273.138 114.688 273.133C114.648 273.128 114.609 273.125 114.569 273.124L114.359 273.11C114.24 273.107 114.116 273.109 113.989 273.12C113.734 273.141 113.463 273.196 113.202 273.286C112.675 273.465 112.212 273.793 111.907 274.124L113.657 273.172C114.072 273.067 114.491 272.965 114.909 272.798C115.326 272.631 115.748 272.452 116.162 272.206C116.582 271.989 116.992 271.7 117.402 271.414C117.81 271.117 118.211 270.791 118.613 270.45C120.216 269.064 121.661 267.303 123.009 265.419C124.355 263.528 125.561 261.476 126.707 259.367C127.276 258.31 127.811 257.229 128.342 256.138L129.126 254.486L129.517 253.637L129.725 253.185L129.855 252.908L129.935 252.744C130.029 252.544 130.232 252.216 130.425 252L129.847 253.035C129.893 252.85 129.948 252.668 130.013 252.483C130.041 252.295 130.065 252.108 130.106 251.917L130.118 251.323L130.041 250.696L129.873 250.041C129.801 249.818 129.698 249.594 129.617 249.365C129.407 248.915 129.183 248.446 128.887 247.99C128.604 247.531 128.282 247.073 127.92 246.631C127.573 246.18 127.172 245.753 126.784 245.311C126.37 244.887 125.961 244.454 125.514 244.045C125.084 243.623 124.613 243.234 124.157 242.826C122.294 241.227 120.259 239.759 118.165 238.34C116.062 236.933 113.888 235.601 111.661 234.311Z" fill="white"/>
<path d="M140.728 261.069C142.595 261.396 144.418 261.922 146.219 262.548C148.025 263.169 149.787 263.943 151.511 264.898C153.22 265.876 154.913 267.008 156.395 268.699C157.133 269.544 157.813 270.56 158.25 271.826C158.692 273.076 158.808 274.618 158.444 276.004L157.87 277.037C158.026 276.881 158.185 276.632 158.255 276.48L158.253 276.501C158.256 276.503 158.242 276.546 158.225 276.598L158.128 276.896L157.911 277.554L157.447 278.901C157.125 279.802 156.761 280.693 156.383 281.584C155.627 283.367 154.73 285.114 153.667 286.826C153.135 287.683 152.551 288.523 151.897 289.34C151.24 290.157 150.522 290.955 149.713 291.715C149.305 292.095 148.874 292.461 148.406 292.805C147.935 293.147 147.456 293.484 146.92 293.779C146.403 294.087 145.831 294.352 145.245 294.588C144.656 294.826 144.028 295.003 143.39 295.153L144.613 294.64C143.875 295.126 143.228 295.296 142.723 295.387C142.211 295.474 141.788 295.485 141.412 295.475C140.672 295.449 140.087 295.342 139.537 295.223C138.453 294.977 137.537 294.65 136.649 294.296C134.885 293.585 133.304 292.707 131.756 291.754C130.213 290.79 128.757 289.702 127.338 288.4C126.627 287.743 125.945 287.02 125.279 286.103C124.949 285.638 124.62 285.122 124.327 284.464C124.048 283.802 123.754 282.947 123.839 281.79L123.832 281.993C123.834 281.87 123.843 281.746 123.857 281.622C123.872 281.489 123.894 281.372 123.903 281.338C123.926 281.232 123.962 281.088 123.986 281.015C124.032 280.869 124.083 280.728 124.122 280.637C124.207 280.424 124.281 280.271 124.356 280.116C124.504 279.816 124.647 279.553 124.79 279.297C125.076 278.787 125.362 278.312 125.651 277.84C126.223 276.897 126.834 276 127.442 275.105C128.662 273.321 129.941 271.588 131.287 269.903C132.623 268.212 134.037 266.574 135.538 265.006C136.305 264.235 137.088 263.476 137.915 262.758C138.328 262.399 138.773 262.068 139.228 261.756C139.685 261.456 140.178 261.137 140.728 261.069ZM140.728 261.069C140.269 261.348 139.964 261.78 139.651 262.194C139.346 262.618 139.08 263.072 138.806 263.516C138.261 264.409 137.763 265.336 137.283 266.273C136.299 268.129 135.375 270.021 134.443 271.902C133.524 273.79 132.612 275.679 131.724 277.562L130.437 280.377C130.231 280.84 130.03 281.304 129.854 281.746C129.767 281.966 129.686 282.182 129.625 282.367C129.596 282.456 129.569 282.547 129.566 282.584C129.558 282.617 129.57 282.602 129.578 282.582C129.582 282.572 129.606 282.494 129.614 282.451L129.645 282.265C129.656 282.174 129.661 282.082 129.66 281.993L129.653 282.196C129.688 281.872 129.641 281.836 129.711 281.922C129.777 282.012 129.909 282.19 130.085 282.381C130.437 282.774 130.947 283.215 131.482 283.648C132.566 284.523 133.856 285.316 135.154 286.057C136.455 286.796 137.832 287.438 139.151 287.949C139.804 288.201 140.463 288.413 140.999 288.522C141.259 288.577 141.496 288.602 141.585 288.601C141.624 288.601 141.616 288.591 141.513 288.608C141.415 288.629 141.172 288.67 140.78 288.926L142.004 288.413C142.253 288.349 142.507 288.292 142.766 288.189C143.025 288.086 143.291 287.978 143.558 287.82C143.827 287.684 144.097 287.495 144.368 287.307C144.638 287.113 144.909 286.896 145.183 286.668C146.279 285.743 147.294 284.52 148.263 283.203C149.229 281.881 150.104 280.427 150.949 278.932C151.369 278.182 151.762 277.411 152.158 276.634L152.745 275.454L153.04 274.843L153.201 274.507L153.306 274.288L153.373 274.153C153.468 273.951 153.657 273.652 153.84 273.446L153.267 274.479C153.434 274.085 153.53 273.7 153.458 273.169C153.389 272.647 153.141 272.023 152.777 271.382C152.028 270.099 150.847 268.815 149.553 267.634C148.257 266.436 146.816 265.325 145.339 264.227C143.853 263.143 142.31 262.102 140.728 261.069Z" fill="white"/>
<path d="M162.499 285.106C163.699 285.584 164.842 286.108 165.988 286.626C167.134 287.141 168.256 287.673 169.368 288.205L172.679 289.77C173.23 290.017 173.765 290.299 174.309 290.527C174.85 290.768 175.395 290.997 175.922 291.251L174.618 290.902C175.015 290.903 175.452 291.005 175.812 291.18C176.215 291.369 176.644 291.737 176.9 292.128C177.07 292.386 177.193 292.659 177.274 292.949C177.321 293.124 177.323 293.158 177.337 293.235L177.365 293.45C177.391 293.8 177.374 293.87 177.364 294.037C177.347 294.215 177.337 294.249 177.321 294.354C177.258 294.685 177.202 294.85 177.154 295.008C177.056 295.313 176.972 295.529 176.887 295.743C176.72 296.158 176.557 296.52 176.39 296.875C176.057 297.58 175.695 298.23 175.33 298.879C174.605 300.175 173.795 301.398 172.932 302.603C172.072 303.813 171.111 304.959 170.057 306.096C168.978 307.219 167.808 308.3 166.216 309.294L166.791 308.861C166.545 309.083 166.263 309.284 165.97 309.444C165.693 309.591 165.505 309.655 165.257 309.738C164.993 309.821 164.835 309.847 164.672 309.873C164.511 309.897 164.314 309.92 164.183 309.924C163.659 309.941 163.271 309.888 162.962 309.832C162.335 309.714 161.914 309.565 161.504 309.416C160.702 309.115 160.047 308.791 159.414 308.454C158.156 307.782 157.052 307.016 155.967 306.235C154.886 305.451 153.883 304.587 152.9 303.704C151.922 302.815 151.008 301.854 150.121 300.866L150.813 296.223C150.72 296.27 150.631 296.328 150.551 296.395C150.498 296.44 150.49 296.45 150.492 296.449L150.482 296.464C150.456 296.502 150.484 296.486 150.522 296.458C150.578 296.43 150.692 296.322 150.788 296.236C150.996 296.045 151.225 295.808 151.452 295.568L152.863 294.046C153.814 292.999 154.789 291.935 155.8 290.892C156.801 289.841 157.85 288.816 158.937 287.817C159.495 287.329 160.058 286.843 160.634 286.372C161.228 285.917 161.832 285.455 162.499 285.106ZM162.499 285.106C162.323 285.438 162.164 285.765 162.008 286.094L161.562 287.092C161.259 287.749 160.971 288.415 160.688 289.085C160.095 290.403 159.507 291.728 158.874 293.026C158.25 294.334 157.599 295.625 156.89 296.911C156.533 297.554 156.182 298.204 155.766 298.853C155.559 299.181 155.349 299.51 155.095 299.866C154.958 300.052 154.843 300.219 154.646 300.445C154.561 300.547 154.464 300.659 154.301 300.812L154.191 300.916C154.161 300.945 154.119 300.984 154.028 301.053C153.874 301.17 153.711 301.279 153.545 301.376L154.237 296.733C155.098 297.476 156.009 298.17 156.927 298.849C157.839 299.536 158.796 300.162 159.739 300.777C160.681 301.389 161.661 301.94 162.582 302.412C163.039 302.646 163.497 302.851 163.851 302.973C164.019 303.035 164.186 303.075 164.165 303.064C164.158 303.063 164.078 303.039 163.861 303.049C163.807 303.052 163.685 303.057 163.601 303.073C163.514 303.09 163.432 303.106 163.24 303.159C163.062 303.214 162.953 303.263 162.741 303.371C162.512 303.488 162.294 303.645 162.112 303.824L162.688 303.391C163.464 302.947 164.372 302.165 165.241 301.329C166.131 300.496 166.974 299.54 167.828 298.578C168.676 297.609 169.486 296.587 170.277 295.568C170.67 295.058 171.04 294.534 171.39 294.037C171.565 293.79 171.73 293.543 171.864 293.335C171.928 293.237 171.986 293.139 172.009 293.119C172.021 293.114 172.02 293.114 171.992 293.276L171.97 293.466C171.963 293.589 171.953 293.616 171.973 293.923L171.998 294.106L172.055 294.36C172.128 294.631 172.243 294.883 172.405 295.122C172.645 295.5 173.059 295.851 173.445 296.028C173.784 296.199 174.2 296.295 174.575 296.292L173.271 295.943C172.741 295.563 172.229 295.158 171.712 294.766C171.187 294.378 170.705 293.962 170.221 293.539C169.742 293.114 169.243 292.714 168.791 292.266L167.418 290.943C166.535 290.028 165.656 289.118 164.844 288.134C164.017 287.171 163.22 286.174 162.499 285.106Z" fill="white"/>
</svg>
